<?xml version="1.0" encoding="UTF-8" standalone="no"?><svg xmlns="http://www.w3.org/2000/svg" xmlns:xlink="http://www.w3.org/1999/xlink" contentScriptType="application/ecmascript" contentStyleType="text/css" height="654.1667px" preserveAspectRatio="none" style="width:461px;height:654px;background:#333333;" version="1.1" viewBox="0 0 461 654" width="461.4583px" zoomAndPan="magnify"><defs/><g><rect fill="#48494B" height="41.2028" rx="8.3333" ry="8.3333" style="stroke:#545454;stroke-width:1.0416666666666667;" width="366.6667" x="40.1042" y="2.0833"/><text fill="#C0C0C0" font-family="Open Sans,Avenir,Nunito,Arial,Helvetica,SansSerif" font-size="20.8333" lengthAdjust="spacing" textLength="343.75" x="51.5625" y="30.5583">com.telenav.kivakit.math.statistics</text><!--MD5=[f85789d7d63aeb86ab56b09c4151887e]
class Resettable--><rect codeLine="6" fill="#282828" height="48.055" id="Resettable" rx="8.3333" ry="8.3333" style="stroke:#5E5E5E;stroke-width:1.0416666666666667;" width="105.2083" x="157.8125" y="95.3695"/><rect fill="#1B1B1A" height="31.3883" rx="8.3333" ry="8.3333" style="stroke:#1B1B1A;stroke-width:1.0416666666666667;" width="105.2083" x="157.8125" y="95.3695"/><rect fill="#1B1B1A" height="8.3333" style="stroke:#1B1B1A;stroke-width:1.0416666666666667;" width="105.2083" x="157.8125" y="118.4245"/><rect codeLine="6" fill="none" height="48.055" id="Resettable" rx="8.3333" ry="8.3333" style="stroke:#5E5E5E;stroke-width:1.0416666666666667;" width="105.2083" x="157.8125" y="95.3695"/><ellipse cx="172.3958" cy="111.0636" fill="#008400" rx="10.4167" ry="10.4167" style="stroke:#239C23;stroke-width:1.0416666666666667;"/><path d="M169.279,108.2255 L169.279,106.6386 L174.705,106.6386 L174.705,108.2255 L172.8923,108.2255 L172.8923,114.1642 L174.705,114.1642 L174.705,115.7511 L169.279,115.7511 L169.279,114.1642 L171.0917,114.1642 L171.0917,108.2255 Z " fill="#000000"/><text fill="#D8BC00" font-family="Open Sans,Avenir,Nunito,Arial,Helvetica,SansSerif" font-size="12.5" font-style="italic" font-weight="bold" lengthAdjust="spacing" textLength="67.7083" x="189.0625" y="115.7878">Resettable</text><line style="stroke:#5E5E5E;stroke-width:1.0416666666666667;" x1="158.8542" x2="261.9792" y1="126.7578" y2="126.7578"/><line style="stroke:#5E5E5E;stroke-width:1.0416666666666667;" x1="158.8542" x2="261.9792" y1="135.0911" y2="135.0911"/><!--MD5=[cc8bdd4a75b8c12356a13db8d1cdad21]
class Average--><rect codeLine="9" fill="#282828" height="210.1807" id="Average" rx="8.3333" ry="8.3333" style="stroke:#5E5E5E;stroke-width:1.0416666666666667;" width="159.375" x="130.7292" y="247.4528"/><rect fill="#1B1B1A" height="31.3883" rx="8.3333" ry="8.3333" style="stroke:#1B1B1A;stroke-width:1.0416666666666667;" width="159.375" x="130.7292" y="247.4528"/><rect fill="#1B1B1A" height="8.3333" style="stroke:#1B1B1A;stroke-width:1.0416666666666667;" width="159.375" x="130.7292" y="270.5078"/><rect codeLine="9" fill="none" height="210.1807" id="Average" rx="8.3333" ry="8.3333" style="stroke:#5E5E5E;stroke-width:1.0416666666666667;" width="159.375" x="130.7292" y="247.4528"/><ellipse cx="177.0833" cy="263.147" fill="#0066CF" rx="10.4167" ry="10.4167" style="stroke:#0086EF;stroke-width:1.0416666666666667;"/><path d="M178.9937,267.572 Q178.5665,267.7917 178.0965,267.9016 Q177.6265,268.0115 177.1077,268.0115 Q175.2645,268.0115 174.294,266.7969 Q173.3236,265.5823 173.3236,263.2874 Q173.3236,260.9863 174.294,259.7717 Q175.2645,258.5571 177.1077,258.5571 Q177.6265,258.5571 178.1026,258.667 Q178.5787,258.7769 178.9937,258.9966 L178.9937,260.9985 Q178.5299,260.5713 178.0935,260.3729 Q177.6571,260.1746 177.1932,260.1746 Q176.2044,260.1746 175.7009,260.9589 Q175.1973,261.7432 175.1973,263.2874 Q175.1973,264.8254 175.7009,265.6097 Q176.2044,266.394 177.1932,266.394 Q177.6571,266.394 178.0935,266.1957 Q178.5299,265.9973 178.9937,265.5701 Z " fill="#000000"/><text fill="#D8BC00" font-family="Open Sans,Avenir,Nunito,Arial,Helvetica,SansSerif" font-size="12.5" font-weight="bold" lengthAdjust="spacing" textLength="52.0833" x="200" y="267.8711">Average</text><line style="stroke:#5E5E5E;stroke-width:1.5625;" x1="131.7708" x2="289.0625" y1="278.8411" y2="278.8411"/><line style="stroke:#5E5E5E;stroke-width:1.0416666666666667;" x1="131.7708" x2="289.0625" y1="287.1745" y2="287.1745"/><ellipse cx="142.1875" cy="298.6328" fill="#84BE84" rx="3.125" ry="3.125" style="stroke:#038048;stroke-width:1.0416666666666667;"/><text fill="#D8BC00" font-family="Open Sans,Avenir,Nunito,Arial,Helvetica,SansSerif" font-size="11.4583" lengthAdjust="spacing" textLength="93.75" x="153.6458" y="305.544">double average()</text><ellipse cx="142.1875" cy="318.3777" fill="#84BE84" rx="3.125" ry="3.125" style="stroke:#038048;stroke-width:1.0416666666666667;"/><text fill="#D8BC00" font-family="Open Sans,Avenir,Nunito,Arial,Helvetica,SansSerif" font-size="11.4583" lengthAdjust="spacing" textLength="71.875" x="153.6458" y="325.2889">int samples()</text><ellipse cx="142.1875" cy="338.1226" fill="#84BE84" rx="3.125" ry="3.125" style="stroke:#038048;stroke-width:1.0416666666666667;"/><text fill="#D8BC00" font-family="Open Sans,Avenir,Nunito,Arial,Helvetica,SansSerif" font-size="11.4583" lengthAdjust="spacing" textLength="75" x="153.6458" y="345.0338">double total()</text><ellipse cx="142.1875" cy="381.779" fill="#84BE84" rx="3.125" ry="3.125" style="stroke:#038048;stroke-width:1.0416666666666667;"/><text fill="#D8BC00" font-family="Open Sans,Avenir,Nunito,Arial,Helvetica,SansSerif" font-size="11.4583" lengthAdjust="spacing" textLength="127.0833" x="153.6458" y="388.6902">void add(double value)</text><ellipse cx="142.1875" cy="401.5238" fill="#84BE84" rx="3.125" ry="3.125" style="stroke:#038048;stroke-width:1.0416666666666667;"/><text fill="#D8BC00" font-family="Open Sans,Avenir,Nunito,Arial,Helvetica,SansSerif" font-size="11.4583" lengthAdjust="spacing" textLength="127.0833" x="153.6458" y="408.4351">void add(Average that)</text><ellipse cx="142.1875" cy="421.2687" fill="#84BE84" rx="3.125" ry="3.125" style="stroke:#038048;stroke-width:1.0416666666666667;"/><text fill="#D8BC00" font-family="Open Sans,Avenir,Nunito,Arial,Helvetica,SansSerif" font-size="11.4583" lengthAdjust="spacing" textLength="105.2083" x="153.6458" y="428.1799">double maximum()</text><ellipse cx="142.1875" cy="441.0136" fill="#84BE84" rx="3.125" ry="3.125" style="stroke:#038048;stroke-width:1.0416666666666667;"/><text fill="#D8BC00" font-family="Open Sans,Avenir,Nunito,Arial,Helvetica,SansSerif" font-size="11.4583" lengthAdjust="spacing" textLength="102.0833" x="153.6458" y="447.9248">double minimum()</text><line style="stroke:#5E5E5E;stroke-width:1.0416666666666667;" x1="131.7708" x2="189.0625" y1="364.6149" y2="364.6149"/><text fill="#D8BC00" font-family="Open Sans,Avenir,Nunito,Arial,Helvetica,SansSerif" font-size="11.4583" lengthAdjust="spacing" textLength="36.4583" x="192.1875" y="368.4245">(math)</text><line style="stroke:#5E5E5E;stroke-width:1.0416666666666667;" x1="231.7708" x2="289.0625" y1="364.6149" y2="364.6149"/><!--MD5=[1c7163f4c50fdf0bbbd9625306269f13]
class AverageDuration--><rect codeLine="23" fill="#282828" height="127.0345" id="AverageDuration" rx="8.3333" ry="8.3333" style="stroke:#5E5E5E;stroke-width:1.0416666666666667;" width="185.4167" x="7.2917" y="520.3695"/><rect fill="#1B1B1A" height="31.3883" rx="8.3333" ry="8.3333" style="stroke:#1B1B1A;stroke-width:1.0416666666666667;" width="185.4167" x="7.2917" y="520.3695"/><rect fill="#1B1B1A" height="8.3333" style="stroke:#1B1B1A;stroke-width:1.0416666666666667;" width="185.4167" x="7.2917" y="543.4245"/><rect codeLine="23" fill="none" height="127.0345" id="AverageDuration" rx="8.3333" ry="8.3333" style="stroke:#5E5E5E;stroke-width:1.0416666666666667;" width="185.4167" x="7.2917" y="520.3695"/><ellipse cx="39.2188" cy="536.0636" fill="#0066CF" rx="10.4167" ry="10.4167" style="stroke:#0086EF;stroke-width:1.0416666666666667;"/><path d="M41.1292,540.4887 Q40.7019,540.7084 40.2319,540.8183 Q39.762,540.9281 39.2432,540.9281 Q37.3999,540.9281 36.4294,539.7135 Q35.459,538.4989 35.459,536.204 Q35.459,533.903 36.4294,532.6884 Q37.3999,531.4738 39.2432,531.4738 Q39.762,531.4738 40.238,531.5837 Q40.7141,531.6935 41.1292,531.9132 L41.1292,533.9152 Q40.6653,533.488 40.2289,533.2896 Q39.7925,533.0912 39.3286,533.0912 Q38.3398,533.0912 37.8363,533.8755 Q37.3328,534.6598 37.3328,536.204 Q37.3328,537.7421 37.8363,538.5264 Q38.3398,539.3107 39.3286,539.3107 Q39.7925,539.3107 40.2289,539.1123 Q40.6653,538.914 41.1292,538.4867 Z " fill="#000000"/><text fill="#D8BC00" font-family="Open Sans,Avenir,Nunito,Arial,Helvetica,SansSerif" font-size="12.5" font-weight="bold" lengthAdjust="spacing" textLength="109.375" x="59.7396" y="540.7878">AverageDuration</text><line style="stroke:#5E5E5E;stroke-width:1.5625;" x1="8.3333" x2="191.6667" y1="551.7578" y2="551.7578"/><ellipse cx="18.75" cy="587.1277" fill="#84BE84" rx="3.125" ry="3.125" style="stroke:#038048;stroke-width:1.0416666666666667;"/><text fill="#D8BC00" font-family="Open Sans,Avenir,Nunito,Arial,Helvetica,SansSerif" font-size="11.4583" lengthAdjust="spacing" textLength="105.2083" x="30.2083" y="594.0389">void add(Duration)</text><line style="stroke:#5E5E5E;stroke-width:1.0416666666666667;" x1="8.3333" x2="65.625" y1="569.9636" y2="569.9636"/><text fill="#D8BC00" font-family="Open Sans,Avenir,Nunito,Arial,Helvetica,SansSerif" font-size="11.4583" lengthAdjust="spacing" textLength="62.5" x="68.75" y="573.7732">(collection)</text><line style="stroke:#5E5E5E;stroke-width:1.0416666666666667;" x1="134.375" x2="191.6667" y1="569.9636" y2="569.9636"/><ellipse cx="18.75" cy="630.7841" fill="#84BE84" rx="3.125" ry="3.125" style="stroke:#038048;stroke-width:1.0416666666666667;"/><text fill="#D8BC00" font-family="Open Sans,Avenir,Nunito,Arial,Helvetica,SansSerif" font-size="11.4583" lengthAdjust="spacing" textLength="153.125" x="30.2083" y="637.6953">Duration averageDuration()</text><line style="stroke:#5E5E5E;stroke-width:1.0416666666666667;" x1="8.3333" x2="80.7292" y1="613.62" y2="613.62"/><text fill="#D8BC00" font-family="Open Sans,Avenir,Nunito,Arial,Helvetica,SansSerif" font-size="11.4583" lengthAdjust="spacing" textLength="32.2917" x="83.8542" y="617.4296">(time)</text><line style="stroke:#5E5E5E;stroke-width:1.0416666666666667;" x1="119.2708" x2="191.6667" y1="613.62" y2="613.62"/><!--MD5=[9ab5fb625d0727c465716874edea4006]
class StandardDeviation--><rect codeLine="32" fill="#282828" height="111.4563" id="StandardDeviation" rx="8.3333" ry="8.3333" style="stroke:#5E5E5E;stroke-width:1.0416666666666667;" width="184.375" x="229.6875" y="528.182"/><rect fill="#1B1B1A" height="31.3883" rx="8.3333" ry="8.3333" style="stroke:#1B1B1A;stroke-width:1.0416666666666667;" width="184.375" x="229.6875" y="528.182"/><rect fill="#1B1B1A" height="8.3333" style="stroke:#1B1B1A;stroke-width:1.0416666666666667;" width="184.375" x="229.6875" y="551.237"/><rect codeLine="32" fill="none" height="111.4563" id="StandardDeviation" rx="8.3333" ry="8.3333" style="stroke:#5E5E5E;stroke-width:1.0416666666666667;" width="184.375" x="229.6875" y="528.182"/><ellipse cx="256.4583" cy="543.8761" fill="#0066CF" rx="10.4167" ry="10.4167" style="stroke:#0086EF;stroke-width:1.0416666666666667;"/><path d="M258.3687,548.3012 Q257.9415,548.5209 257.4715,548.6308 Q257.0015,548.7406 256.4827,548.7406 Q254.6395,548.7406 253.669,547.526 Q252.6986,546.3114 252.6986,544.0165 Q252.6986,541.7155 253.669,540.5009 Q254.6395,539.2863 256.4827,539.2863 Q257.0015,539.2863 257.4776,539.3962 Q257.9537,539.506 258.3687,539.7257 L258.3687,541.7277 Q257.9049,541.3005 257.4685,541.1021 Q257.0321,540.9037 256.5682,540.9037 Q255.5794,540.9037 255.0759,541.688 Q254.5723,542.4723 254.5723,544.0165 Q254.5723,545.5546 255.0759,546.3389 Q255.5794,547.1232 256.5682,547.1232 Q257.0321,547.1232 257.4685,546.9248 Q257.9049,546.7265 258.3687,546.2992 Z " fill="#000000"/><text fill="#D8BC00" font-family="Open Sans,Avenir,Nunito,Arial,Helvetica,SansSerif" font-size="12.5" font-weight="bold" lengthAdjust="spacing" textLength="119.7917" x="275.8333" y="548.6003">StandardDeviation</text><line style="stroke:#5E5E5E;stroke-width:1.5625;" x1="230.7292" x2="413.0208" y1="559.5703" y2="559.5703"/><ellipse cx="241.1458" cy="594.9402" fill="#84BE84" rx="3.125" ry="3.125" style="stroke:#038048;stroke-width:1.0416666666666667;"/><text fill="#D8BC00" font-family="Open Sans,Avenir,Nunito,Arial,Helvetica,SansSerif" font-size="11.4583" lengthAdjust="spacing" textLength="110.4167" x="252.6042" y="601.8514">StandardDeviation()</text><line style="stroke:#5E5E5E;stroke-width:1.0416666666666667;" x1="230.7292" x2="278.125" y1="577.7761" y2="577.7761"/><text fill="#D8BC00" font-family="Open Sans,Avenir,Nunito,Arial,Helvetica,SansSerif" font-size="11.4583" lengthAdjust="spacing" textLength="81.25" x="281.25" y="581.5857">(constructors)</text><line style="stroke:#5E5E5E;stroke-width:1.0416666666666667;" x1="365.625" x2="413.0208" y1="577.7761" y2="577.7761"/><line style="stroke:#5E5E5E;stroke-width:1.0416666666666667;" x1="230.7292" x2="413.0208" y1="611.5601" y2="611.5601"/><ellipse cx="241.1458" cy="623.0184" fill="#84BE84" rx="3.125" ry="3.125" style="stroke:#038048;stroke-width:1.0416666666666667;"/><text fill="#D8BC00" font-family="Open Sans,Avenir,Nunito,Arial,Helvetica,SansSerif" font-size="11.4583" lengthAdjust="spacing" textLength="152.0833" x="252.6042" y="629.9296">double standardDeviation()</text><!--MD5=[f3a269e2ce6a7d6cd4d070adb2a53cf0]
class SuccessRate--><rect codeLine="40" fill="#282828" height="131.2012" id="SuccessRate" rx="8.3333" ry="8.3333" style="stroke:#5E5E5E;stroke-width:1.0416666666666667;" width="154.1667" x="300" y="53.7028"/><rect fill="#1B1B1A" height="31.3883" rx="8.3333" ry="8.3333" style="stroke:#1B1B1A;stroke-width:1.0416666666666667;" width="154.1667" x="300" y="53.7028"/><rect fill="#1B1B1A" height="8.3333" style="stroke:#1B1B1A;stroke-width:1.0416666666666667;" width="154.1667" x="300" y="76.7578"/><rect codeLine="40" fill="none" height="131.2012" id="SuccessRate" rx="8.3333" ry="8.3333" style="stroke:#5E5E5E;stroke-width:1.0416666666666667;" width="154.1667" x="300" y="53.7028"/><ellipse cx="331.9271" cy="69.397" fill="#0066CF" rx="10.4167" ry="10.4167" style="stroke:#0086EF;stroke-width:1.0416666666666667;"/><path d="M333.8375,73.822 Q333.4102,74.0417 332.9403,74.1516 Q332.4703,74.2615 331.9515,74.2615 Q330.1082,74.2615 329.1378,73.0469 Q328.1673,71.8323 328.1673,69.5374 Q328.1673,67.2363 329.1378,66.0217 Q330.1082,64.8071 331.9515,64.8071 Q332.4703,64.8071 332.9464,64.917 Q333.4224,65.0269 333.8375,65.2466 L333.8375,67.2485 Q333.3736,66.8213 332.9372,66.6229 Q332.5008,66.4246 332.0369,66.4246 Q331.0482,66.4246 330.5446,67.2089 Q330.0411,67.9932 330.0411,69.5374 Q330.0411,71.0754 330.5446,71.8597 Q331.0482,72.644 332.0369,72.644 Q332.5008,72.644 332.9372,72.4457 Q333.3736,72.2473 333.8375,71.8201 Z " fill="#000000"/><text fill="#D8BC00" font-family="Open Sans,Avenir,Nunito,Arial,Helvetica,SansSerif" font-size="12.5" font-weight="bold" lengthAdjust="spacing" textLength="78.125" x="352.4479" y="74.1211">SuccessRate</text><line style="stroke:#5E5E5E;stroke-width:1.5625;" x1="301.0417" x2="453.125" y1="85.0911" y2="85.0911"/><line style="stroke:#5E5E5E;stroke-width:1.0416666666666667;" x1="301.0417" x2="453.125" y1="93.4245" y2="93.4245"/><ellipse cx="311.4583" cy="104.8828" fill="#84BE84" rx="3.125" ry="3.125" style="stroke:#038048;stroke-width:1.0416666666666667;"/><text fill="#D8BC00" font-family="Open Sans,Avenir,Nunito,Arial,Helvetica,SansSerif" font-size="11.4583" lengthAdjust="spacing" textLength="78.125" x="322.9167" y="111.794">void attempt()</text><ellipse cx="311.4583" cy="148.5392" fill="#84BE84" rx="3.125" ry="3.125" style="stroke:#038048;stroke-width:1.0416666666666667;"/><text fill="#D8BC00" font-family="Open Sans,Avenir,Nunito,Arial,Helvetica,SansSerif" font-size="11.4583" lengthAdjust="spacing" textLength="80.2083" x="322.9167" y="155.4504">void success()</text><ellipse cx="311.4583" cy="168.2841" fill="#84BE84" rx="3.125" ry="3.125" style="stroke:#038048;stroke-width:1.0416666666666667;"/><text fill="#D8BC00" font-family="Open Sans,Avenir,Nunito,Arial,Helvetica,SansSerif" font-size="11.4583" lengthAdjust="spacing" textLength="121.875" x="322.9167" y="175.1953">Percent successRate()</text><line style="stroke:#5E5E5E;stroke-width:1.0416666666666667;" x1="301.0417" x2="352.6042" y1="131.3751" y2="131.3751"/><text fill="#D8BC00" font-family="Open Sans,Avenir,Nunito,Arial,Helvetica,SansSerif" font-size="11.4583" lengthAdjust="spacing" textLength="42.7083" x="355.7292" y="135.1847">(status)</text><line style="stroke:#5E5E5E;stroke-width:1.0416666666666667;" x1="401.5625" x2="453.125" y1="131.3751" y2="131.3751"/><!--MD5=[6d7144885ab77e5f326002d41e2193ab]
reverse link Resettable to Average--><path codeLine="8" d="M210.4167,164.4945 C210.4167,188.0465 210.4167,218.1195 210.4167,247.2236 " fill="none" id="Resettable-backto-Average" style="stroke:#545454;stroke-width:1.5625;"/><polygon fill="none" points="203.125,164.2236,210.4167,143.3903,217.7083,164.2236,203.125,164.2236" style="stroke:#545454;stroke-width:1.5625;"/><!--MD5=[aef8d80809efeef5818bc00f33da808b]
reverse link Average to AverageDuration--><path codeLine="22" d="M151.0625,476.9007 C143.8438,491.8799 136.7188,506.6611 130.1875,520.2132 " fill="none" id="Average-backto-AverageDuration" style="stroke:#545454;stroke-width:1.5625;"/><polygon fill="none" points="144.6042,473.4945,160.2188,457.8903,157.7396,479.8278,144.6042,473.4945" style="stroke:#545454;stroke-width:1.5625;"/><!--MD5=[1cd4ef8eeb3740a3fe78e19f2e6f8924]
reverse link Average to StandardDeviation--><path codeLine="31" d="M270.2292,476.6924 C278.9896,494.7028 287.6146,512.432 295.2396,528.0986 " fill="none" id="Average-backto-StandardDeviation" style="stroke:#545454;stroke-width:1.5625;"/><polygon fill="none" points="263.6458,479.8174,261.0938,457.8903,276.7604,473.4424,263.6458,479.8174" style="stroke:#545454;stroke-width:1.5625;"/><!--MD5=[e75444d19989c810358db751f3b619c4]
@startuml

    !include ../lexakai/lexakai.theme
    
    title "com.telenav.kivakit.math.statistics"
    
    interface Resettable
    
    Resettable <|- - Average
    class Average
    {
        - -
        +double average()
        +int samples()
        +double total()
        - -(math)- -
        +void add(double value)
        +void add(Average that)
        +double maximum()
        +double minimum()
    }
    
    Average <|- - AverageDuration
    class AverageDuration
    {
        - -(collection)- -
        +void add(Duration)
        - -(time)- -
        +Duration averageDuration()
    }
    
    Average <|- - StandardDeviation
    class StandardDeviation
    {
        - -(constructors)- -
        +StandardDeviation()
        - -
        +double standardDeviation()
    }
    
    class SuccessRate
    {
        - -
        +void attempt()
        - -(status)- -
        +void success()
        +Percent successRate()
    }
    
@enduml

@startuml









skinparam backgroundColor #333333






skinparam  {
    defaultFontName   "Open Sans,Avenir,Nunito,Arial,Helvetica,SansSerif"
    defaultFontSize   12
    defaultTextAlignment left
    shadowing false
    RoundCorner 10
    TitleFontSize 18
}

skinparam defaultFontName       "Open Sans,Avenir,Nunito,Arial,Helvetica,SansSerif"
skinparam defaultFontSize       12
skinparam dpi                   100
skinparam shadowing             false
skinparam roundcorner           16
skinparam ParticipantPadding    40
skinparam BoxPadding            40
skinparam Padding               3
skinparam ArrowColor            #545454
skinparam stereotype {
    CBackgroundColor #0066cf
    CBorderColor #0086ef
    ABackgroundColor #C8Ac00
    ABorderColor #D8Bc00
    IBackgroundColor #008400
    IBorderColor #239c23
    EBackgroundColor #cf6300
    EBorderColor #ef8300
    NBackgroundColor #3380b9
    NBorderColor #004d86
}
skinparam title {
	FontColor	                 #c0c0c0
 	BorderColor                  #545454
	FontSize	    	         20
	BorderRoundCorner            16
	BorderThickness 	         1
	BackgroundColor              #48494b
}


skinparam legend {
	BackgroundColor #303030
	BorderColor #404040
	FontColor #a0a0a0
}

	skinparam swimlane {
	BorderColor #5e5e5e
	BorderThickness 2
	TitleBackgroundColor  #6d6d6d-#484848
	TitleFontColor #303030
}

skinparam activity {
		FontColor #C8Ac00
	BorderColor #333333
	BackgroundColor #333333-#333333
	BarColor #00FF00
	StartColor #0060a8
	EndColor #0060a8
	DiamondBackgroundColor #6d6d6d-#3a3a3a
  	DiamondBorderColor #3a3a3a
  	DiamondFontColor #fefefe
}


skinparam participant {
		FontColor #C8Ac00
	BorderColor #333333
	BackgroundColor #333333-#333333
	ParticipantBorderThickness 2
}


skinparam actor {
		FontColor #C8Ac00
	BorderColor #333333
	BackgroundColor #333333-#333333
}


skinparam arrow {
	Thickness 1.5
	Color #545454
	FontColor #a0a0a0
    FontStyle bold
    MessageAlignment center
}



skinparam sequence {
	BorderColor #303030
	TitleFontColor #303030
	BackgroundColor #333333
	StartColor #303030
	EndColor #303030
	BoxBackgroundColor #333333
	BoxBorderColor #484848
	BoxFontColor #484848
	LifeLineBorderColor #484848
	LifeLineBorderThickness 2
	LifeLineBackgroundColor #3a3a3a
	GroupBorderColor #484848
	GroupFontColor #484848
	GroupHeaderFontColor #0060a8
	GroupBackgroundColor #484848
	GroupHeaderBackgroundColor #333333
	DividerBackgroundColor #484848
    DividerBorderColor #484848
    DividerBorderThickness 2
    DividerFontColor #D8Bc00
	ReferenceBackgroundColor #333333
	ReferenceBorderColor #484848
	ReferenceFontColor #fefefe
	ReferenceHeaderBackgroundColor #484848
}


skinparam partition {
	BorderColor #303030
	FontColor #333333
	BackgroundColor #333333
}


skinparam collections {
		FontColor #C8Ac00
	BorderColor #333333
	BackgroundColor #333333-#333333
}


skinparam control {
		FontColor #C8Ac00
	BorderColor #333333
	BackgroundColor #333333-#333333
}


skinparam entity {
		FontColor #C8Ac00
	BorderColor #333333
	BackgroundColor #333333-#333333
}


skinparam boundary {
		FontColor #C8Ac00
	BorderColor #333333
	BackgroundColor #333333-#333333
}


skinparam agent {
	BackgroundColor #ff8000
	BorderColor #ff9933
	FontColor #484848
}


skinparam note {
	BorderThickness 1
	BackgroundColor #1b1b1a
	BorderColor #5e5e5e
	FontSize 11
	FontColor #a0a0a0
}


skinparam artifact {
	BorderThickness 10
	BorderColor #5e5e5e
	BackgroundColor #1b1b1a
	FontColor #D8Bc00
}


skinparam component {
		FontColor #C8Ac00
	BorderColor #333333
	BackgroundColor #333333-#333333
}


skinparam interface {
	BackgroundColor  #008400
	BorderColor  #007F00
	FontColor #484848
}


skinparam storage {
	BackgroundColor #ff8000
  	BorderColor #cc6600
	FontColor #222222
}


skinparam node {
	BackgroundColor #333333
	BorderColor #333333
	FontColor #C8Ac00
}


skinparam cloud {
	BackgroundColor #484848-black
	BorderColor #484848
	FontColor #D8Bc00
}


skinparam database {
		FontColor #C8Ac00
	BorderColor #333333
	BackgroundColor #333333-#333333
	BackgroundColor  #333333
}


skinparam class {
		FontColor #C8Ac00
	BorderColor #333333
	BackgroundColor #333333-#333333
	HeaderBackgroundColor #1b1b1a
    BackgroundColor #282828
    BorderColor #5e5e5e
 	StereotypeFontColor #a0a0a0
    StereotypeFontStyle bold
	BorderThickness 1
	AttributeFontColor #D8Bc00
	AttributeFontSize 11
    FontColor #D8Bc00
    FontStyle bold
}


skinparam object {
		FontColor #C8Ac00
	BorderColor #333333
	BackgroundColor #333333-#333333
	StereotypeFontColor #484848
	BorderThickness 1
	AttributeFontColor #fefefe
	AttributeFontSize 11
}


skinparam usecase {
		FontColor #C8Ac00
	BorderColor #333333
	BackgroundColor #333333-#333333
	BorderThickness 2
	StereotypeFontColor #303030
}


skinparam rectangle {
		FontColor #C8Ac00
	BorderColor #333333
	BackgroundColor #333333-#333333
	BackgroundColor #333333
	BorderThickness 2
	StereotypeFontColor #303030
}


skinparam package {
		FontColor #C8Ac00
	BorderColor #333333
	BackgroundColor #333333-#333333
	BackgroundColor #333333
	BorderThickness 2
}


skinparam folder {
	BackgroundColor #6d6d6d
  	BorderColor #ff8000
	FontColor #ff8000
	BorderThickness 2
}


skinparam frame {
	BackgroundColor #6d6d6d
  	BorderColor #0060a8
	FontColor #0060a8
	BorderThickness 2
}


skinparam state {
		FontColor #C8Ac00
	BorderColor #333333
	BackgroundColor #333333-#333333
	StartColor #0060a8
	EndColor #0060a8
	AttributeFontColor #fefefe
	AttributeFontSize 11
}


skinparam queue {
		FontColor #C8Ac00
	BorderColor #333333
	BackgroundColor #333333-#333333
}


skinparam card {
	BackgroundColor #0060a8
	BorderColor #004d86
	FontColor $INFO_TEXT
}


skinparam file {
	BackgroundColor #6d6d6d-#484848
	BorderColor #0060a8
	FontColor #fefefe
}


skinparam stack {
		FontColor #C8Ac00
	BorderColor #333333
	BackgroundColor #333333-#333333
}

    
    title "com.telenav.kivakit.math.statistics"
    
    interface Resettable
    
    Resettable <|- - Average
    class Average
    {
        - -
        +double average()
        +int samples()
        +double total()
        - -(math)- -
        +void add(double value)
        +void add(Average that)
        +double maximum()
        +double minimum()
    }
    
    Average <|- - AverageDuration
    class AverageDuration
    {
        - -(collection)- -
        +void add(Duration)
        - -(time)- -
        +Duration averageDuration()
    }
    
    Average <|- - StandardDeviation
    class StandardDeviation
    {
        - -(constructors)- -
        +StandardDeviation()
        - -
        +double standardDeviation()
    }
    
    class SuccessRate
    {
        - -
        +void attempt()
        - -(status)- -
        +void success()
        +Percent successRate()
    }
    
@enduml

PlantUML version 1.2021.01(Tue Feb 02 00:55:08 MST 2021)
(GPL source distribution)
Java Runtime: Java(TM) SE Runtime Environment
JVM: Java HotSpot(TM) 64-Bit Server VM
Default Encoding: UTF-8
Language: en
Country: US
--></g></svg>