<?xml version="1.0" encoding="UTF-8" standalone="no"?><svg xmlns="http://www.w3.org/2000/svg" xmlns:xlink="http://www.w3.org/1999/xlink" contentScriptType="application/ecmascript" contentStyleType="text/css" height="640.625px" preserveAspectRatio="none" style="width:1408px;height:640px;background:#333333;" version="1.1" viewBox="0 0 1408 640" width="1408.3333px" zoomAndPan="magnify"><defs/><g><rect fill="#48494B" height="41.2028" rx="8.3333" ry="8.3333" style="stroke:#545454;stroke-width:1.0416666666666667;" width="153.125" x="620.3125" y="2.0833"/><text fill="#C0C0C0" font-family="Open Sans,Avenir,Nunito,Arial,Helvetica,SansSerif" font-size="20.8333" lengthAdjust="spacing" textLength="130.2083" x="631.7708" y="30.5583">kivakit-math</text><!--MD5=[4f079977920bf52107586fb847a1e92c]
entity kryo--><rect fill="#1B1B1A" height="44.93" rx="8.3333" ry="8.3333" style="stroke:#5E5E5E;stroke-width:1.5625;" width="63.5417" x="206.7708" y="375.5778"/><polygon fill="#1B1B1A" points="252.6042,380.7861,252.6042,395.3695,265.1042,395.3695,265.1042,387.0361,258.8542,380.7861,252.6042,380.7861" style="stroke:#5E5E5E;stroke-width:1.5625;"/><line style="stroke:#5E5E5E;stroke-width:1.5625;" x1="258.8542" x2="258.8542" y1="380.7861" y2="387.0361"/><line style="stroke:#5E5E5E;stroke-width:1.5625;" x1="265.1042" x2="258.8542" y1="387.0361" y2="387.0361"/><text fill="#D8BC00" font-family="Open Sans,Avenir,Nunito,Arial,Helvetica,SansSerif" font-size="12.5" lengthAdjust="spacing" textLength="26.0417" x="220.3125" y="404.3294">kryo</text><!--MD5=[745ab22dbfa32e29a2660b9e5bc2262a]
entity minlog--><rect fill="#1B1B1A" height="44.93" rx="8.3333" ry="8.3333" style="stroke:#5E5E5E;stroke-width:1.5625;" width="77.0833" x="7.2917" y="482.8695"/><polygon fill="#1B1B1A" points="66.6667,488.0778,66.6667,502.6611,79.1667,502.6611,79.1667,494.3278,72.9167,488.0778,66.6667,488.0778" style="stroke:#5E5E5E;stroke-width:1.5625;"/><line style="stroke:#5E5E5E;stroke-width:1.5625;" x1="72.9167" x2="72.9167" y1="488.0778" y2="494.3278"/><line style="stroke:#5E5E5E;stroke-width:1.5625;" x1="79.1667" x2="72.9167" y1="494.3278" y2="494.3278"/><text fill="#D8BC00" font-family="Open Sans,Avenir,Nunito,Arial,Helvetica,SansSerif" font-size="12.5" lengthAdjust="spacing" textLength="39.5833" x="20.8333" y="511.6211">minlog</text><!--MD5=[5d0bc62e6e2e5a8467f655d5e580826c]
entity reflectasm--><rect fill="#1B1B1A" height="44.93" rx="8.3333" ry="8.3333" style="stroke:#5E5E5E;stroke-width:1.5625;" width="100" x="120.8333" y="482.8695"/><polygon fill="#1B1B1A" points="203.125,488.0778,203.125,502.6611,215.625,502.6611,215.625,494.3278,209.375,488.0778,203.125,488.0778" style="stroke:#5E5E5E;stroke-width:1.5625;"/><line style="stroke:#5E5E5E;stroke-width:1.5625;" x1="209.375" x2="209.375" y1="488.0778" y2="494.3278"/><line style="stroke:#5E5E5E;stroke-width:1.5625;" x1="215.625" x2="209.375" y1="494.3278" y2="494.3278"/><text fill="#D8BC00" font-family="Open Sans,Avenir,Nunito,Arial,Helvetica,SansSerif" font-size="12.5" lengthAdjust="spacing" textLength="62.5" x="134.375" y="511.6211">reflectasm</text><!--MD5=[07375bd6ced801b2ef86c9d3f68eec61]
entity jackson_annotations--><rect fill="#1B1B1A" height="44.93" rx="8.3333" ry="8.3333" style="stroke:#5E5E5E;stroke-width:1.5625;" width="158.3333" x="389.5833" y="482.8695"/><polygon fill="#1B1B1A" points="530.2083,488.0778,530.2083,502.6611,542.7083,502.6611,542.7083,494.3278,536.4583,488.0778,530.2083,488.0778" style="stroke:#5E5E5E;stroke-width:1.5625;"/><line style="stroke:#5E5E5E;stroke-width:1.5625;" x1="536.4583" x2="536.4583" y1="488.0778" y2="494.3278"/><line style="stroke:#5E5E5E;stroke-width:1.5625;" x1="542.7083" x2="536.4583" y1="494.3278" y2="494.3278"/><text fill="#D8BC00" font-family="Open Sans,Avenir,Nunito,Arial,Helvetica,SansSerif" font-size="12.5" lengthAdjust="spacing" textLength="120.8333" x="403.125" y="511.6211">jackson_annotations</text><!--MD5=[d9521c76c2842dca8b8a8d137addb4db]
entity kivakit_build_metadata--><rect fill="#1B1B1A" height="44.93" rx="8.3333" ry="8.3333" style="stroke:#5E5E5E;stroke-width:1.5625;" width="176.0417" x="584.8958" y="482.8695"/><polygon fill="#1B1B1A" points="743.2292,488.0778,743.2292,502.6611,755.7292,502.6611,755.7292,494.3278,749.4792,488.0778,743.2292,488.0778" style="stroke:#5E5E5E;stroke-width:1.5625;"/><line style="stroke:#5E5E5E;stroke-width:1.5625;" x1="749.4792" x2="749.4792" y1="488.0778" y2="494.3278"/><line style="stroke:#5E5E5E;stroke-width:1.5625;" x1="755.7292" x2="749.4792" y1="494.3278" y2="494.3278"/><text fill="#D8BC00" font-family="Open Sans,Avenir,Nunito,Arial,Helvetica,SansSerif" font-size="12.5" lengthAdjust="spacing" textLength="138.5417" x="598.4375" y="511.6211">kivakit_build_metadata</text><!--MD5=[c749d8fbd0ccf88f309a9fa69b45c399]
entity kivakit_core_collections--><rect fill="#1B1B1A" height="44.93" rx="8.3333" ry="8.3333" style="stroke:#5E5E5E;stroke-width:1.5625;" width="176.0417" x="574.4792" y="160.9945"/><polygon fill="#1B1B1A" points="732.8125,166.2028,732.8125,180.7861,745.3125,180.7861,745.3125,172.4528,739.0625,166.2028,732.8125,166.2028" style="stroke:#5E5E5E;stroke-width:1.5625;"/><line style="stroke:#5E5E5E;stroke-width:1.5625;" x1="739.0625" x2="739.0625" y1="166.2028" y2="172.4528"/><line style="stroke:#5E5E5E;stroke-width:1.5625;" x1="745.3125" x2="739.0625" y1="172.4528" y2="172.4528"/><text fill="#D8BC00" font-family="Open Sans,Avenir,Nunito,Arial,Helvetica,SansSerif" font-size="12.5" lengthAdjust="spacing" textLength="138.5417" x="588.0208" y="189.7461">kivakit_core_collections</text><!--MD5=[688f54af1e374da9fda80b106920514e]
entity kivakit_core_kernel--><rect fill="#1B1B1A" height="44.93" rx="8.3333" ry="8.3333" style="stroke:#5E5E5E;stroke-width:1.5625;" width="152.0833" x="798.9583" y="375.5778"/><polygon fill="#1B1B1A" points="933.3333,380.7861,933.3333,395.3695,945.8333,395.3695,945.8333,387.0361,939.5833,380.7861,933.3333,380.7861" style="stroke:#5E5E5E;stroke-width:1.5625;"/><line style="stroke:#5E5E5E;stroke-width:1.5625;" x1="939.5833" x2="939.5833" y1="380.7861" y2="387.0361"/><line style="stroke:#5E5E5E;stroke-width:1.5625;" x1="945.8333" x2="939.5833" y1="387.0361" y2="387.0361"/><text fill="#D8BC00" font-family="Open Sans,Avenir,Nunito,Arial,Helvetica,SansSerif" font-size="12.5" lengthAdjust="spacing" textLength="114.5833" x="812.5" y="404.3294">kivakit_core_kernel</text><!--MD5=[98b25bf0c66f95b164f347e9d0e8dc28]
entity kivakit_core_serialization_core--><rect fill="#1B1B1A" height="44.93" rx="8.3333" ry="8.3333" style="stroke:#5E5E5E;stroke-width:1.5625;" width="218.75" x="341.6667" y="375.5778"/><polygon fill="#1B1B1A" points="542.7083,380.7861,542.7083,395.3695,555.2083,395.3695,555.2083,387.0361,548.9583,380.7861,542.7083,380.7861" style="stroke:#5E5E5E;stroke-width:1.5625;"/><line style="stroke:#5E5E5E;stroke-width:1.5625;" x1="548.9583" x2="548.9583" y1="380.7861" y2="387.0361"/><line style="stroke:#5E5E5E;stroke-width:1.5625;" x1="555.2083" x2="548.9583" y1="387.0361" y2="387.0361"/><text fill="#D8BC00" font-family="Open Sans,Avenir,Nunito,Arial,Helvetica,SansSerif" font-size="12.5" lengthAdjust="spacing" textLength="181.25" x="355.2083" y="404.3294">kivakit_core_serialization_core</text><!--MD5=[0a9583a81da34a7dccf2b6c4ad7f5d24]
entity kivakit_core_serialization_kryo--><rect fill="#1B1B1A" height="44.93" rx="8.3333" ry="8.3333" style="stroke:#5E5E5E;stroke-width:1.5625;" width="218.75" x="445.8333" y="268.2861"/><polygon fill="#1B1B1A" points="646.875,273.4945,646.875,288.0778,659.375,288.0778,659.375,279.7445,653.125,273.4945,646.875,273.4945" style="stroke:#5E5E5E;stroke-width:1.5625;"/><line style="stroke:#5E5E5E;stroke-width:1.5625;" x1="653.125" x2="653.125" y1="273.4945" y2="279.7445"/><line style="stroke:#5E5E5E;stroke-width:1.5625;" x1="659.375" x2="653.125" y1="279.7445" y2="279.7445"/><text fill="#D8BC00" font-family="Open Sans,Avenir,Nunito,Arial,Helvetica,SansSerif" font-size="12.5" lengthAdjust="spacing" textLength="181.25" x="459.375" y="297.0378">kivakit_core_serialization_kryo</text><!--MD5=[818dec80b2352fb7b5669cdb2944a52b]
entity kivakit_core_test--><rect fill="#1B1B1A" height="44.93" rx="8.3333" ry="8.3333" style="stroke:#5E5E5E;stroke-width:1.5625;" width="136.4583" x="753.6458" y="268.2861"/><polygon fill="#1B1B1A" points="872.3958,273.4945,872.3958,288.0778,884.8958,288.0778,884.8958,279.7445,878.6458,273.4945,872.3958,273.4945" style="stroke:#5E5E5E;stroke-width:1.5625;"/><line style="stroke:#5E5E5E;stroke-width:1.5625;" x1="878.6458" x2="878.6458" y1="273.4945" y2="279.7445"/><line style="stroke:#5E5E5E;stroke-width:1.5625;" x1="884.8958" x2="878.6458" y1="279.7445" y2="279.7445"/><text fill="#D8BC00" font-family="Open Sans,Avenir,Nunito,Arial,Helvetica,SansSerif" font-size="12.5" lengthAdjust="spacing" textLength="98.9583" x="767.1875" y="297.0378">kivakit_core_test</text><!--MD5=[777f537393e16daa648c56fbfeea7987]
entity kivakit_math--><rect fill="#1B1B1A" height="44.93" rx="8.3333" ry="8.3333" style="stroke:#5E5E5E;stroke-width:1.5625;" width="112.5" x="701.0417" y="53.7028"/><polygon fill="#1B1B1A" points="795.8333,58.9111,795.8333,73.4945,808.3333,73.4945,808.3333,65.1611,802.0833,58.9111,795.8333,58.9111" style="stroke:#5E5E5E;stroke-width:1.5625;"/><line style="stroke:#5E5E5E;stroke-width:1.5625;" x1="802.0833" x2="802.0833" y1="58.9111" y2="65.1611"/><line style="stroke:#5E5E5E;stroke-width:1.5625;" x1="808.3333" x2="802.0833" y1="65.1611" y2="65.1611"/><text fill="#D8BC00" font-family="Open Sans,Avenir,Nunito,Arial,Helvetica,SansSerif" font-size="12.5" lengthAdjust="spacing" textLength="75" x="714.5833" y="82.4544">kivakit_math</text><!--MD5=[7b0fec798d1f32628676dfdf75f1f662]
entity lexakai_annotations--><rect fill="#1B1B1A" height="44.93" rx="8.3333" ry="8.3333" style="stroke:#5E5E5E;stroke-width:1.5625;" width="155.2083" x="797.3958" y="482.8695"/><polygon fill="#1B1B1A" points="934.8958,488.0778,934.8958,502.6611,947.3958,502.6611,947.3958,494.3278,941.1458,488.0778,934.8958,488.0778" style="stroke:#5E5E5E;stroke-width:1.5625;"/><line style="stroke:#5E5E5E;stroke-width:1.5625;" x1="941.1458" x2="941.1458" y1="488.0778" y2="494.3278"/><line style="stroke:#5E5E5E;stroke-width:1.5625;" x1="947.3958" x2="941.1458" y1="494.3278" y2="494.3278"/><text fill="#D8BC00" font-family="Open Sans,Avenir,Nunito,Arial,Helvetica,SansSerif" font-size="12.5" lengthAdjust="spacing" textLength="117.7083" x="810.9375" y="511.6211">lexakai_annotations</text><!--MD5=[b9ccc173c089e3d2abf77c8581e74aca]
entity kryo_serializers--><rect fill="#1B1B1A" height="44.93" rx="8.3333" ry="8.3333" style="stroke:#5E5E5E;stroke-width:1.5625;" width="131.25" x="596.875" y="375.5778"/><polygon fill="#1B1B1A" points="710.4167,380.7861,710.4167,395.3695,722.9167,395.3695,722.9167,387.0361,716.6667,380.7861,710.4167,380.7861" style="stroke:#5E5E5E;stroke-width:1.5625;"/><line style="stroke:#5E5E5E;stroke-width:1.5625;" x1="716.6667" x2="716.6667" y1="380.7861" y2="387.0361"/><line style="stroke:#5E5E5E;stroke-width:1.5625;" x1="722.9167" x2="716.6667" y1="387.0361" y2="387.0361"/><text fill="#D8BC00" font-family="Open Sans,Avenir,Nunito,Arial,Helvetica,SansSerif" font-size="12.5" lengthAdjust="spacing" textLength="93.75" x="610.4167" y="404.3294">kryo_serializers</text><!--MD5=[23cc7f88cfa1ae4b54fca2963c42906f]
entity swagger_annotations--><rect fill="#1B1B1A" height="44.93" rx="8.3333" ry="8.3333" style="stroke:#5E5E5E;stroke-width:1.5625;" width="162.5" x="989.5833" y="482.8695"/><polygon fill="#1B1B1A" points="1134.375,488.0778,1134.375,502.6611,1146.875,502.6611,1146.875,494.3278,1140.625,488.0778,1134.375,488.0778" style="stroke:#5E5E5E;stroke-width:1.5625;"/><line style="stroke:#5E5E5E;stroke-width:1.5625;" x1="1140.625" x2="1140.625" y1="488.0778" y2="494.3278"/><line style="stroke:#5E5E5E;stroke-width:1.5625;" x1="1146.875" x2="1140.625" y1="494.3278" y2="494.3278"/><text fill="#D8BC00" font-family="Open Sans,Avenir,Nunito,Arial,Helvetica,SansSerif" font-size="12.5" lengthAdjust="spacing" textLength="125" x="1003.125" y="511.6211">swagger_annotations</text><!--MD5=[ce55b294004802c137560c2930be5b75]
entity junit--><rect fill="#1B1B1A" height="44.93" rx="8.3333" ry="8.3333" style="stroke:#5E5E5E;stroke-width:1.5625;" width="63.5417" x="1189.0625" y="482.8695"/><polygon fill="#1B1B1A" points="1234.8958,488.0778,1234.8958,502.6611,1247.3958,502.6611,1247.3958,494.3278,1241.1458,488.0778,1234.8958,488.0778" style="stroke:#5E5E5E;stroke-width:1.5625;"/><line style="stroke:#5E5E5E;stroke-width:1.5625;" x1="1241.1458" x2="1241.1458" y1="488.0778" y2="494.3278"/><line style="stroke:#5E5E5E;stroke-width:1.5625;" x1="1247.3958" x2="1241.1458" y1="494.3278" y2="494.3278"/><text fill="#D8BC00" font-family="Open Sans,Avenir,Nunito,Arial,Helvetica,SansSerif" font-size="12.5" lengthAdjust="spacing" textLength="26.0417" x="1202.6042" y="511.6211">junit</text><!--MD5=[374397457fd87171900b6bd6464bbf1c]
entity commons_math--><rect fill="#1B1B1A" height="44.93" rx="8.3333" ry="8.3333" style="stroke:#5E5E5E;stroke-width:1.5625;" width="131.25" x="787.5" y="160.9945"/><polygon fill="#1B1B1A" points="901.0417,166.2028,901.0417,180.7861,913.5417,180.7861,913.5417,172.4528,907.2917,166.2028,901.0417,166.2028" style="stroke:#5E5E5E;stroke-width:1.5625;"/><line style="stroke:#5E5E5E;stroke-width:1.5625;" x1="907.2917" x2="907.2917" y1="166.2028" y2="172.4528"/><line style="stroke:#5E5E5E;stroke-width:1.5625;" x1="913.5417" x2="907.2917" y1="172.4528" y2="172.4528"/><text fill="#D8BC00" font-family="Open Sans,Avenir,Nunito,Arial,Helvetica,SansSerif" font-size="12.5" lengthAdjust="spacing" textLength="93.75" x="801.0417" y="189.7461">commons_math</text><!--MD5=[7f157d37bc1fd6ac970bb67ffdbc66a3]
entity hamcrest_core--><rect fill="#1B1B1A" height="44.93" rx="8.3333" ry="8.3333" style="stroke:#5E5E5E;stroke-width:1.5625;" width="125" x="1158.3333" y="590.1611"/><polygon fill="#1B1B1A" points="1265.625,595.3695,1265.625,609.9528,1278.125,609.9528,1278.125,601.6195,1271.875,595.3695,1265.625,595.3695" style="stroke:#5E5E5E;stroke-width:1.5625;"/><line style="stroke:#5E5E5E;stroke-width:1.5625;" x1="1271.875" x2="1271.875" y1="595.3695" y2="601.6195"/><line style="stroke:#5E5E5E;stroke-width:1.5625;" x1="1278.125" x2="1271.875" y1="601.6195" y2="601.6195"/><text fill="#D8BC00" font-family="Open Sans,Avenir,Nunito,Arial,Helvetica,SansSerif" font-size="12.5" lengthAdjust="spacing" textLength="87.5" x="1171.875" y="618.9128">hamcrest_core</text><!--MD5=[b728e17b4e4da6aa8cb97e9b2766c5e6]
entity annotations--><rect fill="#1B1B1A" height="44.93" rx="8.3333" ry="8.3333" style="stroke:#5E5E5E;stroke-width:1.5625;" width="106.25" x="1289.5833" y="482.8695"/><polygon fill="#1B1B1A" points="1378.125,488.0778,1378.125,502.6611,1390.625,502.6611,1390.625,494.3278,1384.375,488.0778,1378.125,488.0778" style="stroke:#5E5E5E;stroke-width:1.5625;"/><line style="stroke:#5E5E5E;stroke-width:1.5625;" x1="1384.375" x2="1384.375" y1="488.0778" y2="494.3278"/><line style="stroke:#5E5E5E;stroke-width:1.5625;" x1="1390.625" x2="1384.375" y1="494.3278" y2="494.3278"/><text fill="#D8BC00" font-family="Open Sans,Avenir,Nunito,Arial,Helvetica,SansSerif" font-size="12.5" lengthAdjust="spacing" textLength="68.75" x="1303.125" y="511.6211">annotations</text><!--MD5=[b3c862d1486667ad9c7edef6529b2202]
entity objenesis--><rect fill="#1B1B1A" height="44.93" rx="8.3333" ry="8.3333" style="stroke:#5E5E5E;stroke-width:1.5625;" width="94.7917" x="257.8125" y="482.8695"/><polygon fill="#1B1B1A" points="334.8958,488.0778,334.8958,502.6611,347.3958,502.6611,347.3958,494.3278,341.1458,488.0778,334.8958,488.0778" style="stroke:#5E5E5E;stroke-width:1.5625;"/><line style="stroke:#5E5E5E;stroke-width:1.5625;" x1="341.1458" x2="341.1458" y1="488.0778" y2="494.3278"/><line style="stroke:#5E5E5E;stroke-width:1.5625;" x1="347.3958" x2="341.1458" y1="494.3278" y2="494.3278"/><text fill="#D8BC00" font-family="Open Sans,Avenir,Nunito,Arial,Helvetica,SansSerif" font-size="12.5" lengthAdjust="spacing" textLength="57.2917" x="271.3542" y="511.6211">objenesis</text><!--MD5=[92e2ad58d19962135e7ff93f22958550]
entity asm--><rect fill="#1B1B1A" height="44.93" rx="8.3333" ry="8.3333" style="stroke:#5E5E5E;stroke-width:1.5625;" width="62.5" x="139.5833" y="590.1611"/><polygon fill="#1B1B1A" points="184.375,595.3695,184.375,609.9528,196.875,609.9528,196.875,601.6195,190.625,595.3695,184.375,595.3695" style="stroke:#5E5E5E;stroke-width:1.5625;"/><line style="stroke:#5E5E5E;stroke-width:1.5625;" x1="190.625" x2="190.625" y1="595.3695" y2="601.6195"/><line style="stroke:#5E5E5E;stroke-width:1.5625;" x1="196.875" x2="190.625" y1="601.6195" y2="601.6195"/><text fill="#D8BC00" font-family="Open Sans,Avenir,Nunito,Arial,Helvetica,SansSerif" font-size="12.5" lengthAdjust="spacing" textLength="25" x="153.125" y="618.9128">asm</text><!--MD5=[d68e7c4b3ca5f037bcb6997a0b4ed16b]
link junit to hamcrest_core--><path d="M1220.8333,528.109 C1220.8333,544.5778 1220.8333,567.2757 1220.8333,584.8278 " fill="none" id="junit-to-hamcrest_core" style="stroke:#545454;stroke-width:1.5625;"/><polygon fill="#545454" points="1220.8333,590.109,1225,580.734,1220.8333,584.9007,1216.6667,580.734,1220.8333,590.109" style="stroke:#545454;stroke-width:1.5625;"/><!--MD5=[89a440cab1a8a2054a43eb185086c0c4]
link kivakit_core_collections to kivakit_core_serialization_kryo--><path d="M640.2708,206.234 C623.0313,223.1299 599.125,246.5778 581.0417,264.307 " fill="none" id="kivakit_core_collections-to-kivakit_core_serialization_kryo" style="stroke:#545454;stroke-width:1.5625;"/><polygon fill="#545454" points="577.0417,268.234,586.6538,264.6481,580.7615,264.5886,580.821,258.6963,577.0417,268.234" style="stroke:#545454;stroke-width:1.5625;"/><!--MD5=[ada7e85afb2ca27e64790158723ccb81]
link kivakit_core_collections to kivakit_core_test--><path d="M695.1354,205.9736 C721.1354,223.1403 757.5417,247.1715 784.6667,265.0778 " fill="none" id="kivakit_core_collections-to-kivakit_core_test" style="stroke:#545454;stroke-width:1.5625;"/><polygon fill="#545454" points="789.2813,268.1299,783.7577,259.4845,784.9362,265.258,779.1627,266.4365,789.2813,268.1299" style="stroke:#545454;stroke-width:1.5625;"/><!--MD5=[952d2988887d0a1a5ab8e547a07453b0]
link kivakit_core_kernel to annotations--><path d="M951.3021,413.2965 C1031.3229,428.7132 1160.5417,454.8486 1270.8333,482.8695 C1275.1875,483.9736 1279.6667,485.1715 1284.1771,486.4111 " fill="none" id="kivakit_core_kernel-to-annotations" style="stroke:#545454;stroke-width:1.5625;"/><polygon fill="#545454" points="1289.4583,487.8903,1281.5475,481.358,1284.4415,486.4909,1279.3086,489.3849,1289.4583,487.8903" style="stroke:#545454;stroke-width:1.5625;"/><!--MD5=[b7680a521db9e3e37ee2504e235738ce]
link kivakit_core_kernel to jackson_annotations--><path d="M798.5833,418.807 C728.6667,436.9111 625.3958,463.6507 553.0938,482.3799 " fill="none" id="kivakit_core_kernel-to-jackson_annotations" style="stroke:#545454;stroke-width:1.5625;"/><polygon fill="#545454" points="547.9375,483.7132,558.0587,485.3907,552.9787,482.4046,555.9648,477.3247,547.9375,483.7132" style="stroke:#545454;stroke-width:1.5625;"/><!--MD5=[b26fa4ddfc815a8311f8076e771ef7d4]
link kivakit_core_kernel to junit--><path d="M951.2188,417.7653 C1011.4688,433.2653 1097.3542,456.8799 1170.8333,482.8695 C1175.0521,484.359 1179.4271,486.0361 1183.75,487.7653 " fill="none" id="kivakit_core_kernel-to-junit" style="stroke:#545454;stroke-width:1.5625;"/><polygon fill="#545454" points="1188.7917,489.8278,1181.7012,482.4131,1183.9735,487.85,1178.5367,490.1222,1188.7917,489.8278" style="stroke:#545454;stroke-width:1.5625;"/><!--MD5=[147bacadb2b5082a02772764a83ed950]
link kivakit_core_kernel to kivakit_build_metadata--><path d="M833.6146,420.557 C800.375,437.859 753.7188,462.1507 719.2396,480.109 " fill="none" id="kivakit_core_kernel-to-kivakit_build_metadata" style="stroke:#545454;stroke-width:1.5625;"/><polygon fill="#545454" points="714.2396,482.7132,724.4791,482.0775,718.8588,480.3071,720.6293,474.6868,714.2396,482.7132" style="stroke:#545454;stroke-width:1.5625;"/><!--MD5=[faeafeee9ad3ae3a363b253ef7d19a64]
link kivakit_core_kernel to lexakai_annotations--><path d="M875,420.8174 C875,437.2861 875,459.984 875,477.5361 " fill="none" id="kivakit_core_kernel-to-lexakai_annotations" style="stroke:#545454;stroke-width:1.5625;"/><polygon fill="#545454" points="875,482.8174,879.1667,473.4424,875,477.609,870.8333,473.4424,875,482.8174" style="stroke:#545454;stroke-width:1.5625;"/><!--MD5=[99fa47cbfc1fc0fa6998fda90ce70c02]
link kivakit_core_kernel to swagger_annotations--><path d="M915.1042,420.557 C947.3125,437.859 992.5313,462.1507 1025.9479,480.109 " fill="none" id="kivakit_core_kernel-to-swagger_annotations" style="stroke:#545454;stroke-width:1.5625;"/><polygon fill="#545454" points="1030.7813,482.7132,1024.5054,474.5975,1026.1964,480.2422,1020.5517,481.9332,1030.7813,482.7132" style="stroke:#545454;stroke-width:1.5625;"/><!--MD5=[ed13c79f25da6d7afa4b8f2e47ff2272]
link kivakit_core_serialization_kryo to kivakit_core_serialization_core--><path d="M533.625,313.5257 C516.8958,330.4215 493.6771,353.8695 476.125,371.5986 " fill="none" id="kivakit_core_serialization_kryo-to-kivakit_core_serialization_core" style="stroke:#545454;stroke-width:1.5625;"/><polygon fill="#545454" points="472.2396,375.5257,481.8,371.8041,475.9075,371.828,475.8836,365.9355,472.2396,375.5257" style="stroke:#545454;stroke-width:1.5625;"/><!--MD5=[a78602a5e159932f58b4090c620edf6f]
link kivakit_core_serialization_kryo to kryo--><path d="M490.7396,313.1403 C425.9271,334.6715 328.2604,367.1299 275.5,384.6507 " fill="none" id="kivakit_core_serialization_kryo-to-kryo" style="stroke:#545454;stroke-width:1.5625;"/><polygon fill="#545454" points="270.5417,386.2965,280.7514,387.3032,275.4857,384.6585,278.1305,379.3928,270.5417,386.2965" style="stroke:#545454;stroke-width:1.5625;"/><!--MD5=[929cb75ecd116a31d1013b63d48976ad]
link kivakit_core_serialization_kryo to kryo_serializers--><path d="M577.4375,313.5257 C594.6771,330.4215 618.5833,353.8695 636.6667,371.5986 " fill="none" id="kivakit_core_serialization_kryo-to-kryo_serializers" style="stroke:#545454;stroke-width:1.5625;"/><polygon fill="#545454" points="640.6667,375.5257,636.8873,365.988,636.9468,371.8803,631.0546,371.9398,640.6667,375.5257" style="stroke:#545454;stroke-width:1.5625;"/><!--MD5=[a5ef9040e8777483c8e64e436fbf855a]
link kivakit_core_test to kivakit_core_kernel--><path d="M832.8854,313.5257 C841.2708,330.1403 852.8542,353.0778 861.75,370.7028 " fill="none" id="kivakit_core_test-to-kivakit_core_kernel" style="stroke:#545454;stroke-width:1.5625;"/><polygon fill="#545454" points="864.1875,375.5257,863.6824,365.2789,861.8405,370.8762,856.2432,369.0342,864.1875,375.5257" style="stroke:#545454;stroke-width:1.5625;"/><!--MD5=[3a8da46707b3267a7def2c5b13e3afea]
link kivakit_math to commons_math--><path d="M777.1458,98.9424 C792.5417,115.8382 813.8958,139.2861 830.0521,157.0153 " fill="none" id="kivakit_math-to-commons_math" style="stroke:#545454;stroke-width:1.5625;"/><polygon fill="#545454" points="833.625,160.9424,830.3718,151.2126,830.1096,157.0993,824.2229,156.8372,833.625,160.9424" style="stroke:#545454;stroke-width:1.5625;"/><!--MD5=[6b9f3316351492a0f042eefd3b20c2d8]
link kivakit_math to kivakit_core_collections--><path d="M737.6458,98.9424 C722.4271,115.8382 701.3021,139.2861 685.3229,157.0153 " fill="none" id="kivakit_math-to-kivakit_core_collections" style="stroke:#545454;stroke-width:1.5625;"/><polygon fill="#545454" points="681.7917,160.9424,691.1603,156.7614,685.2759,157.0711,684.9662,151.1866,681.7917,160.9424" style="stroke:#545454;stroke-width:1.5625;"/><!--MD5=[8c32f0e7b0abeba01afd276f5a66ee84]
link kryo to minlog--><path d="M206.7188,416.3903 C174.6979,433.8695 125.0729,460.9632 89.4063,480.432 " fill="none" id="kryo-to-minlog" style="stroke:#545454;stroke-width:1.5625;"/><polygon fill="#545454" points="84.6875,483.0153,94.913,482.184,89.2599,480.5213,90.9226,474.8682,84.6875,483.0153" style="stroke:#545454;stroke-width:1.5625;"/><!--MD5=[e75c16e47fcf6c43b15d3c25536a9ed0]
link kryo to objenesis--><path d="M252.3542,420.8174 C262.8854,437.432 277.4271,460.3695 288.5833,477.9945 " fill="none" id="kryo-to-objenesis" style="stroke:#545454;stroke-width:1.5625;"/><polygon fill="#545454" points="291.6458,482.8174,290.1368,472.6698,288.8535,478.4209,283.1023,477.1376,291.6458,482.8174" style="stroke:#545454;stroke-width:1.5625;"/><!--MD5=[e061beb27669383d030ce0c5c656b006]
link kryo to reflectasm--><path d="M224.5104,420.8174 C213.8229,437.432 199.0521,460.3695 187.7188,477.9945 " fill="none" id="kryo-to-reflectasm" style="stroke:#545454;stroke-width:1.5625;"/><polygon fill="#545454" points="184.6146,482.8174,193.1939,477.1918,187.4348,478.4387,186.188,472.6795,184.6146,482.8174" style="stroke:#545454;stroke-width:1.5625;"/><!--MD5=[338783537f3f9263e4097f5ff0c514d3]
link reflectasm to asm--><path d="M170.8333,528.109 C170.8333,544.5778 170.8333,567.2757 170.8333,584.8278 " fill="none" id="reflectasm-to-asm" style="stroke:#545454;stroke-width:1.5625;"/><polygon fill="#545454" points="170.8333,590.109,175,580.734,170.8333,584.9007,166.6667,580.734,170.8333,590.109" style="stroke:#545454;stroke-width:1.5625;"/><!--MD5=[46117dc5d27d097094fec02d2b2746fa]
@startuml

    !include ../lexakai/lexakai.theme
    
    title "kivakit-math"
    
    artifact kryo
    artifact minlog
    artifact reflectasm
    artifact jackson_annotations
    artifact kivakit_build_metadata
    artifact kivakit_core_collections
    artifact kivakit_core_kernel
    artifact kivakit_core_serialization_core
    artifact kivakit_core_serialization_kryo
    artifact kivakit_core_test
    artifact kivakit_math
    artifact lexakai_annotations
    artifact kryo_serializers
    artifact swagger_annotations
    artifact junit
    artifact commons_math
    artifact hamcrest_core
    artifact annotations
    artifact objenesis
    artifact asm
    junit - -> hamcrest_core
    kivakit_core_collections - -> kivakit_core_serialization_kryo
    kivakit_core_collections - -> kivakit_core_test
    kivakit_core_kernel - -> annotations
    kivakit_core_kernel - -> jackson_annotations
    kivakit_core_kernel - -> junit
    kivakit_core_kernel - -> kivakit_build_metadata
    kivakit_core_kernel - -> lexakai_annotations
    kivakit_core_kernel - -> swagger_annotations
    kivakit_core_serialization_kryo - -> kivakit_core_serialization_core
    kivakit_core_serialization_kryo - -> kryo
    kivakit_core_serialization_kryo - -> kryo_serializers
    kivakit_core_test - -> kivakit_core_kernel
    kivakit_math - -> commons_math
    kivakit_math - -> kivakit_core_collections
    kryo - -> minlog
    kryo - -> objenesis
    kryo - -> reflectasm
    reflectasm - -> asm
    
@enduml

@startuml









skinparam backgroundColor #333333






skinparam  {
    defaultFontName   "Open Sans,Avenir,Nunito,Arial,Helvetica,SansSerif"
    defaultFontSize   12
    defaultTextAlignment left
    shadowing false
    RoundCorner 10
    TitleFontSize 18
}

skinparam defaultFontName       "Open Sans,Avenir,Nunito,Arial,Helvetica,SansSerif"
skinparam defaultFontSize       12
skinparam dpi                   100
skinparam shadowing             false
skinparam roundcorner           16
skinparam ParticipantPadding    40
skinparam BoxPadding            40
skinparam Padding               3
skinparam ArrowColor            #545454
skinparam stereotype {
    CBackgroundColor #0066cf
    CBorderColor #0086ef
    ABackgroundColor #C8Ac00
    ABorderColor #D8Bc00
    IBackgroundColor #008400
    IBorderColor #239c23
    EBackgroundColor #cf6300
    EBorderColor #ef8300
    NBackgroundColor #3380b9
    NBorderColor #004d86
}
skinparam title {
	FontColor	                 #c0c0c0
 	BorderColor                  #545454
	FontSize	    	         20
	BorderRoundCorner            16
	BorderThickness 	         1
	BackgroundColor              #48494b
}


skinparam legend {
	BackgroundColor #303030
	BorderColor #404040
	FontColor #a0a0a0
}

	skinparam swimlane {
	BorderColor #5e5e5e
	BorderThickness 2
	TitleBackgroundColor  #6d6d6d-#484848
	TitleFontColor #303030
}

skinparam activity {
		FontColor #C8Ac00
	BorderColor #333333
	BackgroundColor #333333-#333333
	BarColor #00FF00
	StartColor #0060a8
	EndColor #0060a8
	DiamondBackgroundColor #6d6d6d-#3a3a3a
  	DiamondBorderColor #3a3a3a
  	DiamondFontColor #fefefe
}


skinparam participant {
		FontColor #C8Ac00
	BorderColor #333333
	BackgroundColor #333333-#333333
	ParticipantBorderThickness 2
}


skinparam actor {
		FontColor #C8Ac00
	BorderColor #333333
	BackgroundColor #333333-#333333
}


skinparam arrow {
	Thickness 1.5
	Color #545454
	FontColor #a0a0a0
    FontStyle bold
    MessageAlignment center
}



skinparam sequence {
	BorderColor #303030
	TitleFontColor #303030
	BackgroundColor #333333
	StartColor #303030
	EndColor #303030
	BoxBackgroundColor #333333
	BoxBorderColor #484848
	BoxFontColor #484848
	LifeLineBorderColor #484848
	LifeLineBorderThickness 2
	LifeLineBackgroundColor #3a3a3a
	GroupBorderColor #484848
	GroupFontColor #484848
	GroupHeaderFontColor #0060a8
	GroupBackgroundColor #484848
	GroupHeaderBackgroundColor #333333
	DividerBackgroundColor #484848
    DividerBorderColor #484848
    DividerBorderThickness 2
    DividerFontColor #D8Bc00
	ReferenceBackgroundColor #333333
	ReferenceBorderColor #484848
	ReferenceFontColor #fefefe
	ReferenceHeaderBackgroundColor #484848
}


skinparam partition {
	BorderColor #303030
	FontColor #333333
	BackgroundColor #333333
}


skinparam collections {
		FontColor #C8Ac00
	BorderColor #333333
	BackgroundColor #333333-#333333
}


skinparam control {
		FontColor #C8Ac00
	BorderColor #333333
	BackgroundColor #333333-#333333
}


skinparam entity {
		FontColor #C8Ac00
	BorderColor #333333
	BackgroundColor #333333-#333333
}


skinparam boundary {
		FontColor #C8Ac00
	BorderColor #333333
	BackgroundColor #333333-#333333
}


skinparam agent {
	BackgroundColor #ff8000
	BorderColor #ff9933
	FontColor #484848
}


skinparam note {
	BorderThickness 1
	BackgroundColor #1b1b1a
	BorderColor #5e5e5e
	FontSize 11
	FontColor #a0a0a0
}


skinparam artifact {
	BorderThickness 10
	BorderColor #5e5e5e
	BackgroundColor #1b1b1a
	FontColor #D8Bc00
}


skinparam component {
		FontColor #C8Ac00
	BorderColor #333333
	BackgroundColor #333333-#333333
}


skinparam interface {
	BackgroundColor  #008400
	BorderColor  #007F00
	FontColor #484848
}


skinparam storage {
	BackgroundColor #ff8000
  	BorderColor #cc6600
	FontColor #222222
}


skinparam node {
	BackgroundColor #333333
	BorderColor #333333
	FontColor #C8Ac00
}


skinparam cloud {
	BackgroundColor #484848-black
	BorderColor #484848
	FontColor #D8Bc00
}


skinparam database {
		FontColor #C8Ac00
	BorderColor #333333
	BackgroundColor #333333-#333333
	BackgroundColor  #333333
}


skinparam class {
		FontColor #C8Ac00
	BorderColor #333333
	BackgroundColor #333333-#333333
	HeaderBackgroundColor #1b1b1a
    BackgroundColor #282828
    BorderColor #5e5e5e
 	StereotypeFontColor #a0a0a0
    StereotypeFontStyle bold
	BorderThickness 1
	AttributeFontColor #D8Bc00
	AttributeFontSize 11
    FontColor #D8Bc00
    FontStyle bold
}


skinparam object {
		FontColor #C8Ac00
	BorderColor #333333
	BackgroundColor #333333-#333333
	StereotypeFontColor #484848
	BorderThickness 1
	AttributeFontColor #fefefe
	AttributeFontSize 11
}


skinparam usecase {
		FontColor #C8Ac00
	BorderColor #333333
	BackgroundColor #333333-#333333
	BorderThickness 2
	StereotypeFontColor #303030
}


skinparam rectangle {
		FontColor #C8Ac00
	BorderColor #333333
	BackgroundColor #333333-#333333
	BackgroundColor #333333
	BorderThickness 2
	StereotypeFontColor #303030
}


skinparam package {
		FontColor #C8Ac00
	BorderColor #333333
	BackgroundColor #333333-#333333
	BackgroundColor #333333
	BorderThickness 2
}


skinparam folder {
	BackgroundColor #6d6d6d
  	BorderColor #ff8000
	FontColor #ff8000
	BorderThickness 2
}


skinparam frame {
	BackgroundColor #6d6d6d
  	BorderColor #0060a8
	FontColor #0060a8
	BorderThickness 2
}


skinparam state {
		FontColor #C8Ac00
	BorderColor #333333
	BackgroundColor #333333-#333333
	StartColor #0060a8
	EndColor #0060a8
	AttributeFontColor #fefefe
	AttributeFontSize 11
}


skinparam queue {
		FontColor #C8Ac00
	BorderColor #333333
	BackgroundColor #333333-#333333
}


skinparam card {
	BackgroundColor #0060a8
	BorderColor #004d86
	FontColor $INFO_TEXT
}


skinparam file {
	BackgroundColor #6d6d6d-#484848
	BorderColor #0060a8
	FontColor #fefefe
}


skinparam stack {
		FontColor #C8Ac00
	BorderColor #333333
	BackgroundColor #333333-#333333
}

    
    title "kivakit-math"
    
    artifact kryo
    artifact minlog
    artifact reflectasm
    artifact jackson_annotations
    artifact kivakit_build_metadata
    artifact kivakit_core_collections
    artifact kivakit_core_kernel
    artifact kivakit_core_serialization_core
    artifact kivakit_core_serialization_kryo
    artifact kivakit_core_test
    artifact kivakit_math
    artifact lexakai_annotations
    artifact kryo_serializers
    artifact swagger_annotations
    artifact junit
    artifact commons_math
    artifact hamcrest_core
    artifact annotations
    artifact objenesis
    artifact asm
    junit - -> hamcrest_core
    kivakit_core_collections - -> kivakit_core_serialization_kryo
    kivakit_core_collections - -> kivakit_core_test
    kivakit_core_kernel - -> annotations
    kivakit_core_kernel - -> jackson_annotations
    kivakit_core_kernel - -> junit
    kivakit_core_kernel - -> kivakit_build_metadata
    kivakit_core_kernel - -> lexakai_annotations
    kivakit_core_kernel - -> swagger_annotations
    kivakit_core_serialization_kryo - -> kivakit_core_serialization_core
    kivakit_core_serialization_kryo - -> kryo
    kivakit_core_serialization_kryo - -> kryo_serializers
    kivakit_core_test - -> kivakit_core_kernel
    kivakit_math - -> commons_math
    kivakit_math - -> kivakit_core_collections
    kryo - -> minlog
    kryo - -> objenesis
    kryo - -> reflectasm
    reflectasm - -> asm
    
@enduml

PlantUML version 1.2021.01(Tue Feb 02 00:55:08 MST 2021)
(GPL source distribution)
Java Runtime: Java(TM) SE Runtime Environment
JVM: Java HotSpot(TM) 64-Bit Server VM
Default Encoding: UTF-8
Language: en
Country: US
--></g></svg>