<?xml version="1.0" encoding="UTF-8" standalone="no"?><svg xmlns="http://www.w3.org/2000/svg" xmlns:xlink="http://www.w3.org/1999/xlink" contentScriptType="application/ecmascript" contentStyleType="text/css" height="282.2917px" preserveAspectRatio="none" style="width:886px;height:282px;background:#333333;" version="1.1" viewBox="0 0 886 282" width="886.4583px" zoomAndPan="magnify"><defs/><g><rect fill="#48494B" height="41.2028" rx="8.3333" ry="8.3333" style="stroke:#545454;stroke-width:1.0416666666666667;" width="490.625" x="190.8854" y="2.0833"/><text fill="#C0C0C0" font-family="Open Sans,Avenir,Nunito,Arial,Helvetica,SansSerif" font-size="20.8333" lengthAdjust="spacing" textLength="467.7083" x="202.3438" y="30.5583">com.telenav.kivakit.ui.swing.component.health</text><!--MD5=[af350730d7ca78e611dba100a1200108]
class KivaKitPanel--><rect fill="#282828" height="48.055" id="KivaKitPanel" rx="8.3333" ry="8.3333" style="stroke:#5E5E5E;stroke-width:1.0416666666666667;" width="118.75" x="238.0208" y="53.7028"/><rect fill="#1B1B1A" height="31.3883" rx="8.3333" ry="8.3333" style="stroke:#1B1B1A;stroke-width:1.0416666666666667;" width="118.75" x="238.0208" y="53.7028"/><rect fill="#1B1B1A" height="8.3333" style="stroke:#1B1B1A;stroke-width:1.0416666666666667;" width="118.75" x="238.0208" y="76.7578"/><rect fill="none" height="48.055" id="KivaKitPanel" rx="8.3333" ry="8.3333" style="stroke:#5E5E5E;stroke-width:1.0416666666666667;" width="118.75" x="238.0208" y="53.7028"/><ellipse cx="252.6042" cy="69.397" fill="#0066CF" rx="10.4167" ry="10.4167" style="stroke:#0086EF;stroke-width:1.0416666666666667;"/><path d="M254.5146,73.822 Q254.0873,74.0417 253.6174,74.1516 Q253.1474,74.2615 252.6286,74.2615 Q250.7853,74.2615 249.8149,73.0469 Q248.8444,71.8323 248.8444,69.5374 Q248.8444,67.2363 249.8149,66.0217 Q250.7853,64.8071 252.6286,64.8071 Q253.1474,64.8071 253.6235,64.917 Q254.0995,65.0269 254.5146,65.2466 L254.5146,67.2485 Q254.0507,66.8213 253.6143,66.6229 Q253.1779,66.4246 252.714,66.4246 Q251.7253,66.4246 251.2217,67.2089 Q250.7182,67.9932 250.7182,69.5374 Q250.7182,71.0754 251.2217,71.8597 Q251.7253,72.644 252.714,72.644 Q253.1779,72.644 253.6143,72.4457 Q254.0507,72.2473 254.5146,71.8201 Z " fill="#000000"/><text fill="#D8BC00" font-family="Open Sans,Avenir,Nunito,Arial,Helvetica,SansSerif" font-size="12.5" font-weight="bold" lengthAdjust="spacing" textLength="81.25" x="269.2708" y="74.1211">KivaKitPanel</text><line style="stroke:#5E5E5E;stroke-width:1.0416666666666667;" x1="239.0625" x2="355.7292" y1="85.0911" y2="85.0911"/><line style="stroke:#5E5E5E;stroke-width:1.0416666666666667;" x1="239.0625" x2="355.7292" y1="93.4245" y2="93.4245"/><!--MD5=[ce6aca379cda2a5a23d24291d74846ea]
class CpuUse--><rect codeLine="7" fill="#282828" height="111.4563" id="CpuUse" rx="8.3333" ry="8.3333" style="stroke:#5E5E5E;stroke-width:1.0416666666666667;" width="265.625" x="7.2917" y="164.1195"/><rect fill="#1B1B1A" height="31.3883" rx="8.3333" ry="8.3333" style="stroke:#1B1B1A;stroke-width:1.0416666666666667;" width="265.625" x="7.2917" y="164.1195"/><rect fill="#1B1B1A" height="8.3333" style="stroke:#1B1B1A;stroke-width:1.0416666666666667;" width="265.625" x="7.2917" y="187.1745"/><rect codeLine="7" fill="none" height="111.4563" id="CpuUse" rx="8.3333" ry="8.3333" style="stroke:#5E5E5E;stroke-width:1.0416666666666667;" width="265.625" x="7.2917" y="164.1195"/><ellipse cx="107.8125" cy="179.8136" fill="#0066CF" rx="10.4167" ry="10.4167" style="stroke:#0086EF;stroke-width:1.0416666666666667;"/><path d="M109.7229,184.2387 Q109.2957,184.4584 108.8257,184.5683 Q108.3557,184.6781 107.8369,184.6781 Q105.9937,184.6781 105.0232,183.4635 Q104.0527,182.2489 104.0527,179.954 Q104.0527,177.653 105.0232,176.4384 Q105.9937,175.2238 107.8369,175.2238 Q108.3557,175.2238 108.8318,175.3337 Q109.3079,175.4435 109.7229,175.6632 L109.7229,177.6652 Q109.259,177.238 108.8226,177.0396 Q108.3862,176.8412 107.9224,176.8412 Q106.9336,176.8412 106.4301,177.6255 Q105.9265,178.4098 105.9265,179.954 Q105.9265,181.4921 106.4301,182.2764 Q106.9336,183.0607 107.9224,183.0607 Q108.3862,183.0607 108.8226,182.8623 Q109.259,182.664 109.7229,182.2367 Z " fill="#000000"/><text fill="#D8BC00" font-family="Open Sans,Avenir,Nunito,Arial,Helvetica,SansSerif" font-size="12.5" font-weight="bold" lengthAdjust="spacing" textLength="50" x="130.7292" y="184.5378">CpuUse</text><line style="stroke:#5E5E5E;stroke-width:1.5625;" x1="8.3333" x2="271.875" y1="195.5078" y2="195.5078"/><ellipse cx="18.75" cy="230.8777" fill="#84BE84" rx="3.125" ry="3.125" style="stroke:#038048;stroke-width:1.0416666666666667;"/><text fill="#D8BC00" font-family="Open Sans,Avenir,Nunito,Arial,Helvetica,SansSerif" font-size="11.4583" lengthAdjust="spacing" textLength="52.0833" x="30.2083" y="237.7889">CpuUse()</text><line style="stroke:#5E5E5E;stroke-width:1.0416666666666667;" x1="8.3333" x2="96.3542" y1="213.7136" y2="213.7136"/><text fill="#D8BC00" font-family="Open Sans,Avenir,Nunito,Arial,Helvetica,SansSerif" font-size="11.4583" lengthAdjust="spacing" textLength="81.25" x="99.4792" y="217.5232">(constructors)</text><line style="stroke:#5E5E5E;stroke-width:1.0416666666666667;" x1="183.8542" x2="271.875" y1="213.7136" y2="213.7136"/><line style="stroke:#5E5E5E;stroke-width:1.0416666666666667;" x1="8.3333" x2="271.875" y1="247.4976" y2="247.4976"/><ellipse cx="18.75" cy="258.9559" fill="#84BE84" rx="3.125" ry="3.125" style="stroke:#038048;stroke-width:1.0416666666666667;"/><text fill="#D8BC00" font-family="Open Sans,Avenir,Nunito,Arial,Helvetica,SansSerif" font-size="11.4583" lengthAdjust="spacing" textLength="233.3333" x="30.2083" y="265.8671">CpuUse update(JavaVirtualMachineHealth)</text><!--MD5=[44001d270d2cb891a166322e6084d0ac]
class FlashCardPanel--><rect fill="#282828" height="48.055" id="FlashCardPanel" rx="8.3333" ry="8.3333" style="stroke:#5E5E5E;stroke-width:1.0416666666666667;" width="136.4583" x="688.5417" y="53.7028"/><rect fill="#1B1B1A" height="31.3883" rx="8.3333" ry="8.3333" style="stroke:#1B1B1A;stroke-width:1.0416666666666667;" width="136.4583" x="688.5417" y="53.7028"/><rect fill="#1B1B1A" height="8.3333" style="stroke:#1B1B1A;stroke-width:1.0416666666666667;" width="136.4583" x="688.5417" y="76.7578"/><rect fill="none" height="48.055" id="FlashCardPanel" rx="8.3333" ry="8.3333" style="stroke:#5E5E5E;stroke-width:1.0416666666666667;" width="136.4583" x="688.5417" y="53.7028"/><ellipse cx="703.125" cy="69.397" fill="#0066CF" rx="10.4167" ry="10.4167" style="stroke:#0086EF;stroke-width:1.0416666666666667;"/><path d="M705.0354,73.822 Q704.6082,74.0417 704.1382,74.1516 Q703.6682,74.2615 703.1494,74.2615 Q701.3062,74.2615 700.3357,73.0469 Q699.3652,71.8323 699.3652,69.5374 Q699.3652,67.2363 700.3357,66.0217 Q701.3062,64.8071 703.1494,64.8071 Q703.6682,64.8071 704.1443,64.917 Q704.6204,65.0269 705.0354,65.2466 L705.0354,67.2485 Q704.5715,66.8213 704.1351,66.6229 Q703.6987,66.4246 703.2349,66.4246 Q702.2461,66.4246 701.7426,67.2089 Q701.239,67.9932 701.239,69.5374 Q701.239,71.0754 701.7426,71.8597 Q702.2461,72.644 703.2349,72.644 Q703.6987,72.644 704.1351,72.4457 Q704.5715,72.2473 705.0354,71.8201 Z " fill="#000000"/><text fill="#D8BC00" font-family="Open Sans,Avenir,Nunito,Arial,Helvetica,SansSerif" font-size="12.5" font-weight="bold" lengthAdjust="spacing" textLength="98.9583" x="719.7917" y="74.1211">FlashCardPanel</text><line style="stroke:#5E5E5E;stroke-width:1.0416666666666667;" x1="689.5833" x2="823.9583" y1="85.0911" y2="85.0911"/><line style="stroke:#5E5E5E;stroke-width:1.0416666666666667;" x1="689.5833" x2="823.9583" y1="93.4245" y2="93.4245"/><!--MD5=[21484fe067cc4e46aef1739a9825c3de]
class HealthPanel--><rect codeLine="16" fill="#282828" height="111.4563" id="HealthPanel" rx="8.3333" ry="8.3333" style="stroke:#5E5E5E;stroke-width:1.0416666666666667;" width="245.8333" x="633.8542" y="164.1195"/><rect fill="#1B1B1A" height="31.3883" rx="8.3333" ry="8.3333" style="stroke:#1B1B1A;stroke-width:1.0416666666666667;" width="245.8333" x="633.8542" y="164.1195"/><rect fill="#1B1B1A" height="8.3333" style="stroke:#1B1B1A;stroke-width:1.0416666666666667;" width="245.8333" x="633.8542" y="187.1745"/><rect codeLine="16" fill="none" height="111.4563" id="HealthPanel" rx="8.3333" ry="8.3333" style="stroke:#5E5E5E;stroke-width:1.0416666666666667;" width="245.8333" x="633.8542" y="164.1195"/><ellipse cx="711.4583" cy="179.8136" fill="#0066CF" rx="10.4167" ry="10.4167" style="stroke:#0086EF;stroke-width:1.0416666666666667;"/><path d="M713.3687,184.2387 Q712.9415,184.4584 712.4715,184.5683 Q712.0015,184.6781 711.4827,184.6781 Q709.6395,184.6781 708.669,183.4635 Q707.6986,182.2489 707.6986,179.954 Q707.6986,177.653 708.669,176.4384 Q709.6395,175.2238 711.4827,175.2238 Q712.0015,175.2238 712.4776,175.3337 Q712.9537,175.4435 713.3687,175.6632 L713.3687,177.6652 Q712.9049,177.238 712.4685,177.0396 Q712.0321,176.8412 711.5682,176.8412 Q710.5794,176.8412 710.0759,177.6255 Q709.5723,178.4098 709.5723,179.954 Q709.5723,181.4921 710.0759,182.2764 Q710.5794,183.0607 711.5682,183.0607 Q712.0321,183.0607 712.4685,182.8623 Q712.9049,182.664 713.3687,182.2367 Z " fill="#000000"/><text fill="#D8BC00" font-family="Open Sans,Avenir,Nunito,Arial,Helvetica,SansSerif" font-size="12.5" font-weight="bold" lengthAdjust="spacing" textLength="76.0417" x="734.375" y="184.5378">HealthPanel</text><line style="stroke:#5E5E5E;stroke-width:1.5625;" x1="634.8958" x2="878.6458" y1="195.5078" y2="195.5078"/><ellipse cx="645.3125" cy="230.8777" fill="#84BE84" rx="3.125" ry="3.125" style="stroke:#038048;stroke-width:1.0416666666666667;"/><text fill="#D8BC00" font-family="Open Sans,Avenir,Nunito,Arial,Helvetica,SansSerif" font-size="11.4583" lengthAdjust="spacing" textLength="72.9167" x="656.7708" y="237.7889">HealthPanel()</text><line style="stroke:#5E5E5E;stroke-width:1.0416666666666667;" x1="634.8958" x2="713.0208" y1="213.7136" y2="213.7136"/><text fill="#D8BC00" font-family="Open Sans,Avenir,Nunito,Arial,Helvetica,SansSerif" font-size="11.4583" lengthAdjust="spacing" textLength="81.25" x="716.1458" y="217.5232">(constructors)</text><line style="stroke:#5E5E5E;stroke-width:1.0416666666666667;" x1="800.5208" x2="878.6458" y1="213.7136" y2="213.7136"/><line style="stroke:#5E5E5E;stroke-width:1.0416666666666667;" x1="634.8958" x2="878.6458" y1="247.4976" y2="247.4976"/><ellipse cx="645.3125" cy="258.9559" fill="#84BE84" rx="3.125" ry="3.125" style="stroke:#038048;stroke-width:1.0416666666666667;"/><text fill="#D8BC00" font-family="Open Sans,Avenir,Nunito,Arial,Helvetica,SansSerif" font-size="11.4583" lengthAdjust="spacing" textLength="213.5417" x="656.7708" y="265.8671">void update(JavaVirtualMachineHealth)</text><!--MD5=[96e0330e359d4c392e96bc279c587072]
class MemoryUse--><rect codeLine="25" fill="#282828" height="111.4563" id="MemoryUse" rx="8.3333" ry="8.3333" style="stroke:#5E5E5E;stroke-width:1.0416666666666667;" width="287.5" x="309.8958" y="164.1195"/><rect fill="#1B1B1A" height="31.3883" rx="8.3333" ry="8.3333" style="stroke:#1B1B1A;stroke-width:1.0416666666666667;" width="287.5" x="309.8958" y="164.1195"/><rect fill="#1B1B1A" height="8.3333" style="stroke:#1B1B1A;stroke-width:1.0416666666666667;" width="287.5" x="309.8958" y="187.1745"/><rect codeLine="25" fill="none" height="111.4563" id="MemoryUse" rx="8.3333" ry="8.3333" style="stroke:#5E5E5E;stroke-width:1.0416666666666667;" width="287.5" x="309.8958" y="164.1195"/><ellipse cx="408.3333" cy="179.8136" fill="#0066CF" rx="10.4167" ry="10.4167" style="stroke:#0086EF;stroke-width:1.0416666666666667;"/><path d="M410.2437,184.2387 Q409.8165,184.4584 409.3465,184.5683 Q408.8765,184.6781 408.3577,184.6781 Q406.5145,184.6781 405.544,183.4635 Q404.5736,182.2489 404.5736,179.954 Q404.5736,177.653 405.544,176.4384 Q406.5145,175.2238 408.3577,175.2238 Q408.8765,175.2238 409.3526,175.3337 Q409.8287,175.4435 410.2437,175.6632 L410.2437,177.6652 Q409.7799,177.238 409.3435,177.0396 Q408.9071,176.8412 408.4432,176.8412 Q407.4544,176.8412 406.9509,177.6255 Q406.4473,178.4098 406.4473,179.954 Q406.4473,181.4921 406.9509,182.2764 Q407.4544,183.0607 408.4432,183.0607 Q408.9071,183.0607 409.3435,182.8623 Q409.7799,182.664 410.2437,182.2367 Z " fill="#000000"/><text fill="#D8BC00" font-family="Open Sans,Avenir,Nunito,Arial,Helvetica,SansSerif" font-size="12.5" font-weight="bold" lengthAdjust="spacing" textLength="76.0417" x="431.25" y="184.5378">MemoryUse</text><line style="stroke:#5E5E5E;stroke-width:1.5625;" x1="310.9375" x2="596.3542" y1="195.5078" y2="195.5078"/><ellipse cx="321.3542" cy="230.8777" fill="#84BE84" rx="3.125" ry="3.125" style="stroke:#038048;stroke-width:1.0416666666666667;"/><text fill="#D8BC00" font-family="Open Sans,Avenir,Nunito,Arial,Helvetica,SansSerif" font-size="11.4583" lengthAdjust="spacing" textLength="73.9583" x="332.8125" y="237.7889">MemoryUse()</text><line style="stroke:#5E5E5E;stroke-width:1.0416666666666667;" x1="310.9375" x2="409.8958" y1="213.7136" y2="213.7136"/><text fill="#D8BC00" font-family="Open Sans,Avenir,Nunito,Arial,Helvetica,SansSerif" font-size="11.4583" lengthAdjust="spacing" textLength="81.25" x="413.0208" y="217.5232">(constructors)</text><line style="stroke:#5E5E5E;stroke-width:1.0416666666666667;" x1="497.3958" x2="596.3542" y1="213.7136" y2="213.7136"/><line style="stroke:#5E5E5E;stroke-width:1.0416666666666667;" x1="310.9375" x2="596.3542" y1="247.4976" y2="247.4976"/><ellipse cx="321.3542" cy="258.9559" fill="#84BE84" rx="3.125" ry="3.125" style="stroke:#038048;stroke-width:1.0416666666666667;"/><text fill="#D8BC00" font-family="Open Sans,Avenir,Nunito,Arial,Helvetica,SansSerif" font-size="11.4583" lengthAdjust="spacing" textLength="255.2083" x="332.8125" y="265.8671">MemoryUse update(JavaVirtualMachineHealth)</text><!--MD5=[cdc19f709eb5e27b11fd88fd7755deb8]
reverse link KivaKitPanel to CpuUse--><path codeLine="6" d="M255.4375,116.0674 C238.9896,130.734 219.7708,147.8486 201.7917,163.859 " fill="none" id="KivaKitPanel-backto-CpuUse" style="stroke:#545454;stroke-width:1.5625;"/><polygon fill="none" points="251.0104,110.2549,271.4271,101.8382,260.7188,121.1403,251.0104,110.2549" style="stroke:#545454;stroke-width:1.5625;"/><!--MD5=[9b8fa966566f860dce3fc7101f169bc2]
reverse link FlashCardPanel to HealthPanel--><path codeLine="15" d="M756.7708,122.7028 C756.7708,135.7549 756.7708,150.2028 756.7708,163.859 " fill="none" id="FlashCardPanel-backto-HealthPanel" style="stroke:#545454;stroke-width:1.5625;"/><polygon fill="none" points="749.4792,122.6715,756.7708,101.8382,764.0625,122.6715,749.4792,122.6715" style="stroke:#545454;stroke-width:1.5625;"/><!--MD5=[27efd2e7ff274841b63d9e79d2b09561]
reverse link KivaKitPanel to MemoryUse--><path codeLine="24" d="M339.0729,116.0674 C355.4167,130.734 374.5104,147.8486 392.3646,163.859 " fill="none" id="KivaKitPanel-backto-MemoryUse" style="stroke:#545454;stroke-width:1.5625;"/><polygon fill="none" points="333.8438,121.1715,323.1979,101.8382,343.5729,110.3174,333.8438,121.1715" style="stroke:#545454;stroke-width:1.5625;"/><!--MD5=[4a694e44a44233580491adf2ba64a701]
@startuml

    !include ../lexakai/lexakai.theme
    
    title "com.telenav.kivakit.ui.swing.component.health"
    
    KivaKitPanel <|- - CpuUse
    class CpuUse
    {
        - -(constructors)- -
        +CpuUse()
        - -
        +CpuUse update(JavaVirtualMachineHealth)
    }
    
    FlashCardPanel <|- - HealthPanel
    class HealthPanel
    {
        - -(constructors)- -
        +HealthPanel()
        - -
        +void update(JavaVirtualMachineHealth)
    }
    
    KivaKitPanel <|- - MemoryUse
    class MemoryUse
    {
        - -(constructors)- -
        +MemoryUse()
        - -
        +MemoryUse update(JavaVirtualMachineHealth)
    }
    
@enduml

@startuml









skinparam backgroundColor #333333






skinparam  {
    defaultFontName   "Open Sans,Avenir,Nunito,Arial,Helvetica,SansSerif"
    defaultFontSize   12
    defaultTextAlignment left
    shadowing false
    RoundCorner 10
    TitleFontSize 18
}

skinparam defaultFontName       "Open Sans,Avenir,Nunito,Arial,Helvetica,SansSerif"
skinparam defaultFontSize       12
skinparam dpi                   100
skinparam shadowing             false
skinparam roundcorner           16
skinparam ParticipantPadding    40
skinparam BoxPadding            40
skinparam Padding               3
skinparam ArrowColor            #545454
skinparam stereotype {
    CBackgroundColor #0066cf
    CBorderColor #0086ef
    ABackgroundColor #C8Ac00
    ABorderColor #D8Bc00
    IBackgroundColor #008400
    IBorderColor #239c23
    EBackgroundColor #cf6300
    EBorderColor #ef8300
    NBackgroundColor #3380b9
    NBorderColor #004d86
}
skinparam title {
	FontColor	                 #c0c0c0
 	BorderColor                  #545454
	FontSize	    	         20
	BorderRoundCorner            16
	BorderThickness 	         1
	BackgroundColor              #48494b
}


skinparam legend {
	BackgroundColor #303030
	BorderColor #404040
	FontColor #a0a0a0
}

	skinparam swimlane {
	BorderColor #5e5e5e
	BorderThickness 2
	TitleBackgroundColor  #6d6d6d-#484848
	TitleFontColor #303030
}

skinparam activity {
		FontColor #C8Ac00
	BorderColor #333333
	BackgroundColor #333333-#333333
	BarColor #00FF00
	StartColor #0060a8
	EndColor #0060a8
	DiamondBackgroundColor #6d6d6d-#3a3a3a
  	DiamondBorderColor #3a3a3a
  	DiamondFontColor #fefefe
}


skinparam participant {
		FontColor #C8Ac00
	BorderColor #333333
	BackgroundColor #333333-#333333
	ParticipantBorderThickness 2
}


skinparam actor {
		FontColor #C8Ac00
	BorderColor #333333
	BackgroundColor #333333-#333333
}


skinparam arrow {
	Thickness 1.5
	Color #545454
	FontColor #a0a0a0
    FontStyle bold
    MessageAlignment center
}



skinparam sequence {
	BorderColor #303030
	TitleFontColor #303030
	BackgroundColor #333333
	StartColor #303030
	EndColor #303030
	BoxBackgroundColor #333333
	BoxBorderColor #484848
	BoxFontColor #484848
	LifeLineBorderColor #484848
	LifeLineBorderThickness 2
	LifeLineBackgroundColor #3a3a3a
	GroupBorderColor #484848
	GroupFontColor #484848
	GroupHeaderFontColor #0060a8
	GroupBackgroundColor #484848
	GroupHeaderBackgroundColor #333333
	DividerBackgroundColor #484848
    DividerBorderColor #484848
    DividerBorderThickness 2
    DividerFontColor #D8Bc00
	ReferenceBackgroundColor #333333
	ReferenceBorderColor #484848
	ReferenceFontColor #fefefe
	ReferenceHeaderBackgroundColor #484848
}


skinparam partition {
	BorderColor #303030
	FontColor #333333
	BackgroundColor #333333
}


skinparam collections {
		FontColor #C8Ac00
	BorderColor #333333
	BackgroundColor #333333-#333333
}


skinparam control {
		FontColor #C8Ac00
	BorderColor #333333
	BackgroundColor #333333-#333333
}


skinparam entity {
		FontColor #C8Ac00
	BorderColor #333333
	BackgroundColor #333333-#333333
}


skinparam boundary {
		FontColor #C8Ac00
	BorderColor #333333
	BackgroundColor #333333-#333333
}


skinparam agent {
	BackgroundColor #ff8000
	BorderColor #ff9933
	FontColor #484848
}


skinparam note {
	BorderThickness 1
	BackgroundColor #1b1b1a
	BorderColor #5e5e5e
	FontSize 11
	FontColor #a0a0a0
}


skinparam artifact {
	BorderThickness 10
	BorderColor #5e5e5e
	BackgroundColor #1b1b1a
	FontColor #D8Bc00
}


skinparam component {
		FontColor #C8Ac00
	BorderColor #333333
	BackgroundColor #333333-#333333
}


skinparam interface {
	BackgroundColor  #008400
	BorderColor  #007F00
	FontColor #484848
}


skinparam storage {
	BackgroundColor #ff8000
  	BorderColor #cc6600
	FontColor #222222
}


skinparam node {
	BackgroundColor #333333
	BorderColor #333333
	FontColor #C8Ac00
}


skinparam cloud {
	BackgroundColor #484848-black
	BorderColor #484848
	FontColor #D8Bc00
}


skinparam database {
		FontColor #C8Ac00
	BorderColor #333333
	BackgroundColor #333333-#333333
	BackgroundColor  #333333
}


skinparam class {
		FontColor #C8Ac00
	BorderColor #333333
	BackgroundColor #333333-#333333
	HeaderBackgroundColor #1b1b1a
    BackgroundColor #282828
    BorderColor #5e5e5e
 	StereotypeFontColor #a0a0a0
    StereotypeFontStyle bold
	BorderThickness 1
	AttributeFontColor #D8Bc00
	AttributeFontSize 11
    FontColor #D8Bc00
    FontStyle bold
}


skinparam object {
		FontColor #C8Ac00
	BorderColor #333333
	BackgroundColor #333333-#333333
	StereotypeFontColor #484848
	BorderThickness 1
	AttributeFontColor #fefefe
	AttributeFontSize 11
}


skinparam usecase {
		FontColor #C8Ac00
	BorderColor #333333
	BackgroundColor #333333-#333333
	BorderThickness 2
	StereotypeFontColor #303030
}


skinparam rectangle {
		FontColor #C8Ac00
	BorderColor #333333
	BackgroundColor #333333-#333333
	BackgroundColor #333333
	BorderThickness 2
	StereotypeFontColor #303030
}


skinparam package {
		FontColor #C8Ac00
	BorderColor #333333
	BackgroundColor #333333-#333333
	BackgroundColor #333333
	BorderThickness 2
}


skinparam folder {
	BackgroundColor #6d6d6d
  	BorderColor #ff8000
	FontColor #ff8000
	BorderThickness 2
}


skinparam frame {
	BackgroundColor #6d6d6d
  	BorderColor #0060a8
	FontColor #0060a8
	BorderThickness 2
}


skinparam state {
		FontColor #C8Ac00
	BorderColor #333333
	BackgroundColor #333333-#333333
	StartColor #0060a8
	EndColor #0060a8
	AttributeFontColor #fefefe
	AttributeFontSize 11
}


skinparam queue {
		FontColor #C8Ac00
	BorderColor #333333
	BackgroundColor #333333-#333333
}


skinparam card {
	BackgroundColor #0060a8
	BorderColor #004d86
	FontColor $INFO_TEXT
}


skinparam file {
	BackgroundColor #6d6d6d-#484848
	BorderColor #0060a8
	FontColor #fefefe
}


skinparam stack {
		FontColor #C8Ac00
	BorderColor #333333
	BackgroundColor #333333-#333333
}

    
    title "com.telenav.kivakit.ui.swing.component.health"
    
    KivaKitPanel <|- - CpuUse
    class CpuUse
    {
        - -(constructors)- -
        +CpuUse()
        - -
        +CpuUse update(JavaVirtualMachineHealth)
    }
    
    FlashCardPanel <|- - HealthPanel
    class HealthPanel
    {
        - -(constructors)- -
        +HealthPanel()
        - -
        +void update(JavaVirtualMachineHealth)
    }
    
    KivaKitPanel <|- - MemoryUse
    class MemoryUse
    {
        - -(constructors)- -
        +MemoryUse()
        - -
        +MemoryUse update(JavaVirtualMachineHealth)
    }
    
@enduml

PlantUML version 1.2021.01(Tue Feb 02 00:55:08 MST 2021)
(GPL source distribution)
Java Runtime: Java(TM) SE Runtime Environment
JVM: Java HotSpot(TM) 64-Bit Server VM
Default Encoding: UTF-8
Language: en
Country: US
--></g></svg>